<?xml version="1.0" encoding="UTF-8" standalone="no"?>
<!DOCTYPE svg PUBLIC "-//W3C//DTD SVG 1.1//EN" "http://www.w3.org/Graphics/SVG/1.1/DTD/svg11.dtd">
<svg width="100%" height="100%" viewBox="0 0 2126 2126" version="1.1" xmlns="http://www.w3.org/2000/svg" xmlns:xlink="http://www.w3.org/1999/xlink" xml:space="preserve" xmlns:serif="http://www.serif.com/" style="fill-rule:evenodd;clip-rule:evenodd;stroke-linecap:round;stroke-linejoin:round;stroke-miterlimit:1.5;">
    <g id="AUTUMN" transform="matrix(1,0,0,1,-2673.93,-5175)">
        <g id="AUTUMN-BACKGROUND" serif:id="AUTUMN BACKGROUND" transform="matrix(1,0,0,1,1882.5,1162.65)">
            <g transform="matrix(0.849206,-1.06042,1.06042,0.849206,-5582.58,2697.35)">
                <circle cx="2059.42" cy="5332.35" r="539.402" style="fill:rgb(167,34,68);stroke:rgb(167,34,68);stroke-width:3.07px;"/>
            </g>
            <g transform="matrix(1.13926,-1.42261,1.42261,1.13926,-8087.76,1989.1)">
                <circle cx="2090.97" cy="5290.56" r="352.158" style="fill:rgb(195,118,119);"/>
            </g>
            <g transform="matrix(1.11043,-1.38662,1.38662,1.11043,-7985.25,1910.79)">
                <circle cx="2074.78" cy="5410.41" r="316.138" style="fill:rgb(167,34,68);"/>
            </g>
            <g transform="matrix(0.62388,-0.78152,0.78152,0.62388,-3259.84,3334.05)">
                <g transform="matrix(-0.246259,1.35897,-1.11628,-0.211515,7982.47,3538.7)">
                    <g transform="matrix(-1.19879,-0.00603671,0.00634213,-1.25944,3745.97,10789.7)">
                        <path d="M1672.05,4850.56C1681.76,4912.5 1465.36,4912.35 1474.28,4850.56C1482.68,4792.28 1523.72,4633.77 1523.72,4633.77L1622.6,4633.77C1623.22,4636.14 1662.76,4791.32 1672.05,4850.56Z" style="fill:rgb(195,118,119);stroke:rgb(167,34,68);stroke-width:5.41px;"/>
                    </g>
                    <g transform="matrix(0.764638,0.0735803,-0.0544165,0.92894,672.986,196.271)">
                        <path d="M1849.61,4667.17C1879.25,4661.02 1909.94,4657.78 1941.39,4657.78C1961.13,4657.78 1980.58,4659.06 1999.66,4661.53" style="fill:rgb(195,118,119);stroke:rgb(167,34,68);stroke-width:27.55px;stroke-linecap:square;"/>
                    </g>
                </g>
                <g transform="matrix(0.902524,1.04542,-0.857251,0.745616,4501.84,-744.08)">
                    <g transform="matrix(-1.19879,-0.00603671,0.00634213,-1.25944,3748.22,10801.6)">
                        <path d="M1672.05,4850.56C1681.76,4912.5 1465.36,4912.35 1474.28,4850.56C1482.68,4792.28 1523.72,4633.77 1523.72,4633.77L1622.6,4633.77C1623.22,4636.14 1662.76,4791.32 1672.05,4850.56Z" style="fill:rgb(195,118,119);stroke:rgb(167,34,68);stroke-width:5.38px;"/>
                    </g>
                    <g transform="matrix(0.764917,0.0574084,-0.0500489,0.930056,654.249,234.978)">
                        <path d="M1849.61,4667.17C1879.25,4661.02 1909.94,4657.78 1941.39,4657.78C1961.13,4657.78 1980.58,4659.06 1999.66,4661.53" style="fill:rgb(195,118,119);stroke:rgb(167,34,68);stroke-width:27.55px;stroke-linecap:square;"/>
                    </g>
                </g>
                <g transform="matrix(1.38041,-0.043759,0.0432848,1.13532,-991.375,-677.993)">
                    <g transform="matrix(-1.19879,-0.00603671,0.00634213,-1.25944,3748.22,10807.6)">
                        <path d="M1672.05,4850.56C1681.76,4912.5 1465.36,4912.35 1474.28,4850.56C1482.68,4792.28 1523.72,4633.77 1523.72,4633.77L1622.6,4633.77C1623.22,4636.14 1662.76,4791.32 1672.05,4850.56Z" style="fill:rgb(195,118,119);stroke:rgb(167,34,68);stroke-width:5.37px;"/>
                    </g>
                    <g transform="matrix(0.766007,0.0295245,-0.0292045,0.931371,554.94,296.556)">
                        <path d="M1849.61,4667.17C1879.25,4661.02 1909.94,4657.78 1941.39,4657.78C1961.13,4657.78 1980.58,4659.06 1999.66,4661.53" style="fill:rgb(195,118,119);stroke:rgb(167,34,68);stroke-width:27.55px;stroke-linecap:square;"/>
                    </g>
                </g>
                <g transform="matrix(0.815952,-1.1143,0.912288,0.677165,-4363.43,3681.32)">
                    <g transform="matrix(-1.19879,-0.00603671,0.00634213,-1.25944,3748.21,10813.6)">
                        <path d="M1672.05,4850.56C1681.76,4912.5 1465.36,4912.35 1474.28,4850.56C1482.68,4792.28 1523.72,4633.77 1523.72,4633.77L1622.6,4633.77C1623.22,4636.14 1662.76,4791.32 1672.05,4850.56Z" style="fill:rgb(195,118,119);stroke:rgb(167,34,68);stroke-width:5.41px;"/>
                    </g>
                    <g transform="matrix(0.76609,0.0388,-0.0269475,0.931031,544.338,285.861)">
                        <path d="M1849.61,4667.17C1879.25,4661.02 1909.94,4657.78 1941.39,4657.78C1961.13,4657.78 1980.58,4659.06 1999.66,4661.53" style="fill:rgb(195,118,119);stroke:rgb(167,34,68);stroke-width:27.55px;stroke-linecap:square;"/>
                    </g>
                </g>
                <g transform="matrix(-0.355163,-1.33466,1.09897,-0.288261,-3102.92,9029.79)">
                    <g transform="matrix(-1.19879,-0.00603671,0.00634213,-1.25944,3748.21,10818.6)">
                        <path d="M1672.05,4850.56C1681.76,4912.5 1465.36,4912.35 1474.28,4850.56C1482.68,4792.28 1523.72,4633.77 1523.72,4633.77L1622.6,4633.77C1623.22,4636.14 1662.76,4791.32 1672.05,4850.56Z" style="fill:rgb(195,118,119);stroke:rgb(167,34,68);stroke-width:5.4px;"/>
                    </g>
                    <g transform="matrix(0.766132,0.0341709,-0.0253842,0.931199,536.852,293.845)">
                        <path d="M1849.61,4667.17C1879.25,4661.02 1909.94,4657.78 1941.39,4657.78C1961.13,4657.78 1980.58,4659.06 1999.66,4661.53" style="fill:rgb(195,118,119);stroke:rgb(167,34,68);stroke-width:27.55px;stroke-linecap:square;"/>
                    </g>
                </g>
                <g transform="matrix(-1.26433,-0.555802,0.448836,-1.04373,1939.34,11414.1)">
                    <g transform="matrix(-1.19879,-0.00603671,0.00634213,-1.25944,3748.21,10813.6)">
                        <path d="M1672.05,4850.56C1681.76,4912.5 1465.36,4912.35 1474.28,4850.56C1482.68,4792.28 1523.72,4633.77 1523.72,4633.77L1622.6,4633.77C1623.22,4636.14 1662.76,4791.32 1672.05,4850.56Z" style="fill:rgb(195,118,119);stroke:rgb(167,34,68);stroke-width:5.37px;"/>
                    </g>
                    <g transform="matrix(0.765825,0.0336526,-0.0338489,0.931242,576.408,290.138)">
                        <path d="M1849.61,4667.17C1879.25,4661.02 1909.94,4657.78 1941.39,4657.78C1961.13,4657.78 1980.58,4659.06 1999.66,4661.53" style="fill:rgb(195,118,119);stroke:rgb(167,34,68);stroke-width:27.55px;stroke-linecap:square;"/>
                    </g>
                </g>
                <g transform="matrix(-1.21826,0.650604,-0.535065,-1.00226,6881.98,8923.97)">
                    <g transform="matrix(-1.19879,-0.00603671,0.00634213,-1.25944,3748.21,10813.6)">
                        <path d="M1672.05,4850.56C1681.76,4912.5 1465.36,4912.35 1474.28,4850.56C1482.68,4792.28 1523.72,4633.77 1523.72,4633.77L1622.6,4633.77C1623.22,4636.14 1662.76,4791.32 1672.05,4850.56Z" style="fill:rgb(195,118,119);stroke:rgb(167,34,68);stroke-width:5.39px;"/>
                    </g>
                    <g transform="matrix(0.76582,0.0407126,-0.0333815,0.93093,574.512,279.47)">
                        <path d="M1849.61,4667.17C1879.25,4661.02 1909.94,4657.78 1941.39,4657.78C1961.13,4657.78 1980.58,4659.06 1999.66,4661.53" style="fill:rgb(195,118,119);stroke:rgb(167,34,68);stroke-width:27.55px;stroke-linecap:square;"/>
                    </g>
                </g>
            </g>
            <g transform="matrix(1.03099,-1.28741,1.28741,1.03099,-6087.57,1396.12)">
                <circle cx="1272.46" cy="5125.02" r="125.305" style="fill:rgb(167,34,68);"/>
            </g>
            <g transform="matrix(1,0,0,1,194.502,-7.13162)">
                <circle cx="1627.84" cy="5048.9" r="369.771" style="fill:none;stroke:rgb(167,34,68);stroke-width:41.67px;"/>
            </g>
            <g transform="matrix(0.680377,-0.849598,0.849598,0.680377,-3399.14,2635.91)">
                <circle cx="1272.46" cy="5125.02" r="125.305" style="fill:rgb(195,118,119);"/>
            </g>
        </g>
        <g id="autumn-emblem" serif:id="autumn emblem" transform="matrix(1.01511,0,0,1.01511,1408.38,838.939)">
            <path d="M2258.78,5571.03C2199.34,5562.09 2146.82,5548.27 2114.28,5527.18C2005.74,5456.84 1892.82,5289.24 1995.08,5128.47C1997.84,5124.12 2000.74,5119.89 2003.76,5115.79L1885.32,4984.84L1921.02,4995.02L2020.97,5095.2C2101.08,5010.44 2244.46,4994.61 2381.88,5089.74C2495.12,5168.14 2513.78,5354.57 2548.34,5462.59C2573.91,5542.52 2636.21,5583.39 2636.21,5583.39C2636.21,5583.39 2512.66,5590.35 2382.01,5583.04C2400.48,5566.62 2412.2,5542.22 2412.2,5515C2412.2,5465.59 2373.57,5425.47 2326,5425.47C2278.43,5425.47 2239.8,5465.59 2239.8,5515C2239.8,5536.2 2246.91,5555.69 2258.78,5571.03Z" style="fill:white;"/>
            <path d="M1897.91,5127.26C1810.1,5320.67 1937.37,5515.25 2067.4,5599.52C2107.78,5625.68 2172.22,5645.18 2245.97,5656.27C2271.06,5660.04 2295.98,5652.54 2314.58,5636.66C2329.57,5655.59 2352.19,5667.7 2377.19,5669.1C2512.82,5676.69 2641.06,5669.45 2641.06,5669.45C2678.21,5667.35 2709.83,5641.66 2719.47,5605.72C2729.11,5569.78 2714.6,5531.72 2683.49,5511.31C2683.49,5511.31 2646.16,5485.48 2630.44,5436.32C2609.14,5369.74 2593.27,5274.29 2559.21,5191.09C2530.58,5121.13 2489.62,5059.49 2430.94,5018.87C2286.02,4918.54 2136.2,4918.86 2028.52,4980.73C2028.52,4980.73 1982.05,4934.14 1982.05,4934.14C1971.66,4923.73 1958.79,4916.15 1944.65,4912.12L1908.95,4901.94C1871.96,4891.4 1832.46,4906.64 1812.14,4939.3C1791.82,4971.96 1795.59,5014.13 1821.39,5042.66L1897.91,5127.26ZM2258.78,5571.03C2199.34,5562.09 2146.82,5548.27 2114.28,5527.18C2005.74,5456.84 1892.82,5289.24 1995.08,5128.47C1997.84,5124.12 2000.74,5119.89 2003.76,5115.79L1885.32,4984.84L1921.02,4995.02L2020.97,5095.2C2101.08,5010.44 2244.46,4994.61 2381.88,5089.74C2495.12,5168.14 2513.78,5354.57 2548.34,5462.59C2573.91,5542.52 2636.21,5583.39 2636.21,5583.39C2636.21,5583.39 2512.66,5590.35 2382.01,5583.04C2400.48,5566.62 2412.2,5542.22 2412.2,5515C2412.2,5465.59 2373.57,5425.47 2326,5425.47C2278.43,5425.47 2239.8,5465.59 2239.8,5515C2239.8,5536.2 2246.91,5555.69 2258.78,5571.03ZM2326.52,5512.31C2326.55,5512.12 2326.53,5511.96 2326.45,5511.85C2326.37,5511.73 2326.23,5511.67 2326,5511.67C2326.3,5511.67 2326.46,5511.93 2326.52,5512.31Z" style="fill:rgb(167,34,68);"/>
            <path d="M2340.14,5244.1C2349.72,5235.02 2364.67,5228.78 2379.38,5224.75C2399.57,5219.22 2419.02,5216.84 2424.42,5218.33C2429.84,5220.18 2435.74,5217.27 2437.59,5211.85C2439.43,5206.43 2436.53,5200.53 2431.11,5198.68C2424.58,5196.02 2399.88,5194.59 2373.83,5198.53C2353.65,5201.59 2333.13,5208.42 2318.98,5218.99C2312.05,5224.83 2311.17,5235.19 2317.01,5242.12C2322.84,5249.05 2333.21,5249.94 2340.14,5244.1Z" style="fill:rgb(167,34,68);"/>
            <g transform="matrix(1,0,0,1,9.85781,-36.0024)">
                <path d="M2296.77,5265.78C2284.91,5274.07 2280.09,5284.16 2279.01,5295.76C2278.32,5303.18 2279.31,5311.36 2280.54,5319.91C2281.68,5327.76 2283.28,5336.08 2280.99,5344.3C2279.95,5347.99 2274.59,5352.9 2268.81,5359.62C2256.07,5374.42 2240.13,5393.85 2234.19,5416C2228.87,5435.86 2230.51,5457.94 2248.58,5480.99C2252.41,5486.11 2259.68,5487.15 2264.8,5483.32C2269.91,5479.49 2270.96,5472.22 2267.13,5467.1C2255.7,5451.11 2254.74,5436.36 2258.9,5423.21C2265.66,5401.83 2284.49,5384.62 2295.96,5372.21C2303.04,5364.55 2307.7,5357.74 2309.29,5352.9C2312.7,5342.5 2312.63,5331.84 2311.77,5321.53C2311.12,5313.64 2309.74,5306.07 2310.66,5299.42C2311.01,5296.89 2312.3,5294.81 2314.97,5293.11C2322.52,5288.09 2324.56,5277.89 2319.54,5270.34C2314.51,5262.8 2304.31,5260.76 2296.77,5265.78Z" style="fill:rgb(167,34,68);"/>
            </g>
            <path d="M2426.01,5370.15C2421.97,5373.67 2417.42,5379.31 2413.54,5386.97C2405.7,5402.45 2398.67,5426.69 2396.78,5449.44C2394.76,5473.67 2398.75,5495.93 2410.08,5506.52C2414.57,5511.07 2421.91,5511.11 2426.46,5506.61C2431.01,5502.11 2431.05,5494.77 2426.55,5490.23C2423.31,5486.68 2422.53,5480.93 2422.11,5474.44C2421.48,5464.56 2423.18,5453 2425.9,5441.62C2430.74,5421.39 2438.81,5401.5 2446.59,5395.74C2453.65,5390.06 2454.77,5379.72 2449.1,5372.65C2443.42,5365.59 2433.07,5364.47 2426.01,5370.15Z" style="fill:rgb(167,34,68);"/>
            <path d="M2466.74,5386.39C2472.13,5385.98 2484.29,5385.86 2497.42,5390.98C2503.12,5393.88 2510.1,5391.61 2513,5385.92C2515.91,5380.22 2513.64,5373.24 2507.94,5370.33C2483.52,5354.63 2465.84,5354.76 2458.32,5355.31C2452.41,5355.74 2449.28,5358.2 2448.23,5358.82C2439.67,5363.86 2432.71,5393.41 2463.6,5387.67C2464.71,5387.34 2465.76,5386.91 2466.74,5386.39ZM2456.89,5355.62C2456.17,5355.64 2455.34,5355.77 2454.41,5356.14C2455.23,5355.9 2456.06,5355.73 2456.89,5355.62Z" style="fill:rgb(167,34,68);"/>
            <path d="M2037.2,5140.51C2055.56,5156.1 2079.76,5173.28 2105.53,5184.91C2123.57,5193.06 2142.34,5198.57 2160.5,5199.33C2211.25,5201.47 2258.22,5212.27 2301,5234.65C2341.35,5255.75 2377.97,5286.98 2410.64,5330.5C2437.32,5366.03 2448.54,5426.49 2471.39,5475.89C2481.9,5498.62 2494.71,5519.12 2512.07,5534.35C2514.93,5536.93 2519.34,5536.7 2521.92,5533.84C2524.5,5530.98 2524.27,5526.57 2521.41,5523.99C2505.93,5509.64 2494.87,5490.48 2485.83,5469.45C2463.75,5418.06 2453.35,5355.85 2426.94,5318.6C2393.34,5271.21 2355.01,5236.95 2312.56,5213.26C2267.07,5187.87 2216.76,5174.72 2162.08,5170.93C2143.81,5169.67 2125.04,5162.11 2107.55,5152.3C2088.87,5141.82 2071.73,5128.56 2058.21,5116.43C2051.57,5110.63 2041.47,5111.32 2035.67,5117.96C2029.87,5124.61 2030.55,5134.71 2037.2,5140.51Z" style="fill:rgb(167,34,68);"/>
            <path d="M2130.98,5346.57C2130.67,5345.74 2129.65,5342.92 2128.81,5340.18C2124.13,5324.78 2116.72,5290.77 2123.64,5260.27C2128.57,5238.53 2145.31,5216.98 2154.08,5208.29C2154.34,5208.03 2154.65,5207.75 2154.95,5207.5C2159.09,5205.68 2162.47,5202.17 2163.98,5197.53C2166.77,5188.91 2162.04,5179.64 2153.42,5176.85C2150.51,5175.99 2144.65,5174.66 2138,5179.26C2135.36,5181.09 2130.34,5185.71 2124.88,5192.82C2114.11,5206.84 2099.62,5231.06 2095.62,5254.73C2091.26,5280.48 2095.15,5307.86 2100.29,5327.91C2103.54,5340.61 2107.14,5350.35 2109.16,5354.84C2113.13,5363.63 2120.38,5364.51 2121.28,5364.48C2127.67,5364.48 2132.87,5359.29 2132.87,5352.9C2132.87,5350.56 2132.17,5348.39 2130.98,5346.57Z" style="fill:rgb(167,34,68);"/>
            <g transform="matrix(1,0,0,1,-9,4)">
                <path d="M2175.06,5183.89C2195.28,5163.07 2216.92,5147.8 2240.5,5137.58C2265.14,5126.9 2291.61,5121.42 2320.23,5120.39C2325.84,5120.39 2330.39,5115.83 2330.39,5110.23C2330.39,5104.62 2325.84,5100.07 2320.23,5100.07C2288.54,5098.92 2258.89,5103.01 2230.82,5112.83C2203.09,5122.53 2177.12,5138.11 2152.35,5160.17C2145.81,5166.44 2145.58,5176.84 2151.85,5183.39C2158.12,5189.93 2168.52,5190.15 2175.06,5183.89Z" style="fill:rgb(167,34,68);"/>
            </g>
        </g>
    </g>
</svg>
