<?xml version="1.0" encoding="UTF-8" standalone="no"?>
<!DOCTYPE svg PUBLIC "-//W3C//DTD SVG 1.1//EN" "http://www.w3.org/Graphics/SVG/1.1/DTD/svg11.dtd">
<svg width="100%" height="100%" viewBox="0 0 2126 2126" version="1.1" xmlns="http://www.w3.org/2000/svg" xmlns:xlink="http://www.w3.org/1999/xlink" xml:space="preserve" xmlns:serif="http://www.serif.com/" style="fill-rule:evenodd;clip-rule:evenodd;stroke-linecap:round;stroke-linejoin:round;stroke-miterlimit:1.5;">
    <g id="SPRING" transform="matrix(1,0,0,1,-2808.06,-5275.67)">
        <g id="SPRING-BACKGROUND" serif:id="SPRING BACKGROUND" transform="matrix(1,0,0,1,2017.1,1263.72)">
            <g transform="matrix(0.849206,-1.06042,1.06042,0.849206,-5582.58,2697.35)">
                <circle cx="2059.42" cy="5332.35" r="539.402" style="fill:rgb(96,153,92);stroke:rgb(96,153,92);stroke-width:3.07px;"/>
            </g>
            <g transform="matrix(1.13926,-1.42261,1.42261,1.13926,-8087.76,1989.1)">
                <circle cx="2090.97" cy="5290.56" r="352.158" style="fill:rgb(158,206,132);"/>
            </g>
            <g transform="matrix(1.11043,-1.38662,1.38662,1.11043,-7985.25,1910.79)">
                <circle cx="2074.78" cy="5410.41" r="316.138" style="fill:rgb(96,153,92);"/>
            </g>
            <g transform="matrix(0.62388,-0.78152,0.78152,0.62388,-3259.84,3334.05)">
                <g transform="matrix(-0.246259,1.35897,-1.11628,-0.211515,7982.47,3538.7)">
                    <g transform="matrix(-1.19879,-0.00603671,0.00634213,-1.25944,3745.97,10789.7)">
                        <path d="M1672.05,4850.56C1681.76,4912.5 1465.36,4912.35 1474.28,4850.56C1482.68,4792.28 1523.72,4633.77 1523.72,4633.77L1622.6,4633.77C1623.22,4636.14 1662.76,4791.32 1672.05,4850.56Z" style="fill:rgb(158,206,132);stroke:rgb(96,153,92);stroke-width:5.41px;"/>
                    </g>
                    <g transform="matrix(0.764638,0.0735803,-0.0544165,0.92894,672.986,196.271)">
                        <path d="M1849.61,4667.17C1879.25,4661.02 1909.94,4657.78 1941.39,4657.78C1961.13,4657.78 1980.58,4659.06 1999.66,4661.53" style="fill:none;stroke:rgb(96,153,92);stroke-width:27.55px;stroke-linecap:square;"/>
                    </g>
                </g>
                <g transform="matrix(0.902524,1.04542,-0.857251,0.745616,4501.84,-744.08)">
                    <g transform="matrix(-1.19879,-0.00603671,0.00634213,-1.25944,3748.22,10801.6)">
                        <path d="M1672.05,4850.56C1681.76,4912.5 1465.36,4912.35 1474.28,4850.56C1482.68,4792.28 1523.72,4633.77 1523.72,4633.77L1622.6,4633.77C1623.22,4636.14 1662.76,4791.32 1672.05,4850.56Z" style="fill:rgb(158,206,132);stroke:rgb(96,153,92);stroke-width:5.38px;"/>
                    </g>
                    <g transform="matrix(0.764917,0.0574084,-0.0500489,0.930056,654.249,234.978)">
                        <path d="M1849.61,4667.17C1879.25,4661.02 1909.94,4657.78 1941.39,4657.78C1961.13,4657.78 1980.58,4659.06 1999.66,4661.53" style="fill:none;stroke:rgb(96,153,92);stroke-width:27.55px;stroke-linecap:square;"/>
                    </g>
                </g>
                <g transform="matrix(1.38041,-0.043759,0.0432848,1.13532,-991.375,-677.993)">
                    <g transform="matrix(-1.19879,-0.00603671,0.00634213,-1.25944,3748.22,10807.6)">
                        <path d="M1672.05,4850.56C1681.76,4912.5 1465.36,4912.35 1474.28,4850.56C1482.68,4792.28 1523.72,4633.77 1523.72,4633.77L1622.6,4633.77C1623.22,4636.14 1662.76,4791.32 1672.05,4850.56Z" style="fill:rgb(158,206,132);stroke:rgb(96,153,92);stroke-width:5.37px;"/>
                    </g>
                    <g transform="matrix(0.766007,0.0295245,-0.0292045,0.931371,554.94,296.556)">
                        <path d="M1849.61,4667.17C1879.25,4661.02 1909.94,4657.78 1941.39,4657.78C1961.13,4657.78 1980.58,4659.06 1999.66,4661.53" style="fill:none;stroke:rgb(96,153,92);stroke-width:27.55px;stroke-linecap:square;"/>
                    </g>
                </g>
                <g transform="matrix(0.815952,-1.1143,0.912288,0.677165,-4363.43,3681.32)">
                    <g transform="matrix(-1.19879,-0.00603671,0.00634213,-1.25944,3748.21,10813.6)">
                        <path d="M1672.05,4850.56C1681.76,4912.5 1465.36,4912.35 1474.28,4850.56C1482.68,4792.28 1523.72,4633.77 1523.72,4633.77L1622.6,4633.77C1623.22,4636.14 1662.76,4791.32 1672.05,4850.56Z" style="fill:rgb(158,206,132);stroke:rgb(96,153,92);stroke-width:5.41px;"/>
                    </g>
                    <g transform="matrix(0.76609,0.0388,-0.0269475,0.931031,544.338,285.861)">
                        <path d="M1849.61,4667.17C1879.25,4661.02 1909.94,4657.78 1941.39,4657.78C1961.13,4657.78 1980.58,4659.06 1999.66,4661.53" style="fill:none;stroke:rgb(96,153,92);stroke-width:27.55px;stroke-linecap:square;"/>
                    </g>
                </g>
                <g transform="matrix(-0.355163,-1.33466,1.09897,-0.288261,-3102.92,9029.79)">
                    <g transform="matrix(-1.19879,-0.00603671,0.00634213,-1.25944,3748.21,10818.6)">
                        <path d="M1672.05,4850.56C1681.76,4912.5 1465.36,4912.35 1474.28,4850.56C1482.68,4792.28 1523.72,4633.77 1523.72,4633.77L1622.6,4633.77C1623.22,4636.14 1662.76,4791.32 1672.05,4850.56Z" style="fill:rgb(158,206,132);stroke:rgb(96,153,92);stroke-width:5.4px;"/>
                    </g>
                    <g transform="matrix(0.766132,0.0341709,-0.0253842,0.931199,536.852,293.845)">
                        <path d="M1849.61,4667.17C1879.25,4661.02 1909.94,4657.78 1941.39,4657.78C1961.13,4657.78 1980.58,4659.06 1999.66,4661.53" style="fill:none;stroke:rgb(96,153,92);stroke-width:27.55px;stroke-linecap:square;"/>
                    </g>
                </g>
                <g transform="matrix(-1.26433,-0.555802,0.448836,-1.04373,1939.34,11414.1)">
                    <g transform="matrix(-1.19879,-0.00603671,0.00634213,-1.25944,3748.21,10813.6)">
                        <path d="M1672.05,4850.56C1681.76,4912.5 1465.36,4912.35 1474.28,4850.56C1482.68,4792.28 1523.72,4633.77 1523.72,4633.77L1622.6,4633.77C1623.22,4636.14 1662.76,4791.32 1672.05,4850.56Z" style="fill:rgb(158,206,132);stroke:rgb(96,153,92);stroke-width:5.37px;"/>
                    </g>
                    <g transform="matrix(0.765825,0.0336526,-0.0338489,0.931242,576.408,290.138)">
                        <path d="M1849.61,4667.17C1879.25,4661.02 1909.94,4657.78 1941.39,4657.78C1961.13,4657.78 1980.58,4659.06 1999.66,4661.53" style="fill:none;stroke:rgb(96,153,92);stroke-width:27.55px;stroke-linecap:square;"/>
                    </g>
                </g>
                <g transform="matrix(-1.21826,0.650604,-0.535065,-1.00226,6881.98,8923.97)">
                    <g transform="matrix(-1.19879,-0.00603671,0.00634213,-1.25944,3748.21,10813.6)">
                        <path d="M1672.05,4850.56C1681.76,4912.5 1465.36,4912.35 1474.28,4850.56C1482.68,4792.28 1523.72,4633.77 1523.72,4633.77L1622.6,4633.77C1623.22,4636.14 1662.76,4791.32 1672.05,4850.56Z" style="fill:rgb(158,206,132);stroke:rgb(96,153,92);stroke-width:5.39px;"/>
                    </g>
                    <g transform="matrix(0.76582,0.0407126,-0.0333815,0.93093,574.512,279.47)">
                        <path d="M1849.61,4667.17C1879.25,4661.02 1909.94,4657.78 1941.39,4657.78C1961.13,4657.78 1980.58,4659.06 1999.66,4661.53" style="fill:none;stroke:rgb(96,153,92);stroke-width:27.55px;stroke-linecap:square;"/>
                    </g>
                </g>
            </g>
            <g transform="matrix(1.03099,-1.28741,1.28741,1.03099,-6087.57,1396.12)">
                <circle cx="1272.46" cy="5125.02" r="125.305" style="fill:rgb(96,153,92);"/>
            </g>
            <g transform="matrix(1,0,0,1,194.502,-7.13162)">
                <circle cx="1627.84" cy="5048.9" r="369.771" style="fill:none;stroke:rgb(96,153,92);stroke-width:41.67px;"/>
            </g>
            <g transform="matrix(0.680377,-0.849598,0.849598,0.680377,-3399.14,2635.91)">
                <circle cx="1272.46" cy="5125.02" r="125.305" style="fill:rgb(158,206,132);"/>
            </g>
        </g>
        <g id="spring-emblem" serif:id="spring emblem" transform="matrix(1.75012,0,0,1.75012,1315.75,-2071.17)">
            <g transform="matrix(1.37139,0,0,1.37139,-519.236,-1757.77)">
                <g transform="matrix(1,0,0,1,0,1.45837)">
                    <g transform="matrix(2.515e-17,0.41073,-0.438711,2.68633e-17,3348.99,4203.39)">
                        <path d="M914.685,4372.62C916.212,4440.98 959.672,4531.35 1018.6,4550.27C1084.16,4571.32 1298.73,4421.11 1334.6,4398.35C1349.67,4388.79 1379.87,4405.4 1379.87,4372.62C1379.87,4339.84 1349.67,4356.45 1334.6,4346.89C1298.73,4324.13 1084.16,4173.92 1018.6,4194.97C959.672,4213.89 916.212,4304.26 914.685,4372.62Z" style="fill:rgb(96,153,92);stroke:rgb(96,153,92);stroke-width:4.09px;"/>
                    </g>
                    <g transform="matrix(0.358782,0.199937,-0.213558,0.383224,1868.82,2818.46)">
                        <path d="M914.685,4372.62C916.212,4440.98 959.672,4531.35 1018.6,4550.27C1084.16,4571.32 1298.73,4421.11 1334.6,4398.35C1349.67,4388.79 1379.87,4405.4 1379.87,4372.62C1379.87,4339.84 1349.67,4356.45 1334.6,4346.89C1298.73,4324.13 1084.16,4173.92 1018.6,4194.97C959.672,4213.89 916.212,4304.26 914.685,4372.62Z" style="fill:rgb(96,153,92);stroke:rgb(96,153,92);stroke-width:4.09px;"/>
                    </g>
                    <g transform="matrix(-0.358782,0.199937,0.213558,0.383224,991.403,2818.46)">
                        <path d="M1379.87,4372.62C1379.87,4339.84 1349.67,4356.45 1334.6,4346.89C1298.73,4324.13 1084.16,4173.92 1018.6,4194.97C959.672,4213.89 916.212,4304.26 914.685,4372.62C916.212,4440.98 959.672,4531.35 1018.6,4550.27C1084.16,4571.32 1298.73,4421.11 1334.6,4398.35C1349.67,4388.79 1379.87,4405.4 1379.87,4372.62Z" style="fill:rgb(96,153,92);stroke:rgb(96,153,92);stroke-width:4.09px;"/>
                    </g>
                </g>
                <g transform="matrix(1,0,0,1,0,-1.45837)">
                    <g transform="matrix(3.40965e-17,-0.41073,-0.438711,-1.87503e-17,3348.99,5340.34)">
                        <path d="M914.685,4372.62C916.212,4440.98 959.672,4531.35 1018.6,4550.27C1084.16,4571.32 1298.73,4421.11 1334.6,4398.35C1349.67,4388.79 1379.87,4405.4 1379.87,4372.62C1379.87,4339.84 1349.67,4356.45 1334.6,4346.89C1298.73,4324.13 1084.16,4173.92 1018.6,4194.97C959.672,4213.89 916.212,4304.26 914.685,4372.62Z" style="fill:rgb(96,153,92);stroke:rgb(96,153,92);stroke-width:4.09px;"/>
                    </g>
                    <g transform="matrix(0.358782,-0.199937,-0.213558,-0.383224,1868.82,6725.27)">
                        <path d="M1379.87,4372.62C1379.87,4339.84 1349.67,4356.45 1334.6,4346.89C1298.73,4324.13 1084.16,4173.92 1018.6,4194.97C959.672,4213.89 916.212,4304.26 914.685,4372.62C916.212,4440.98 959.672,4531.35 1018.6,4550.27C1084.16,4571.32 1298.73,4421.11 1334.6,4398.35C1349.67,4388.79 1379.87,4405.4 1379.87,4372.62Z" style="fill:rgb(96,153,92);stroke:rgb(96,153,92);stroke-width:4.09px;"/>
                    </g>
                    <g transform="matrix(-0.358782,-0.199937,0.213558,-0.383224,991.403,6725.27)">
                        <path d="M1379.87,4372.62C1379.87,4339.84 1349.67,4356.45 1334.6,4346.89C1298.73,4324.13 1084.16,4173.92 1018.6,4194.97C959.672,4213.89 916.212,4304.26 914.685,4372.62C916.212,4440.98 959.672,4531.35 1018.6,4550.27C1084.16,4571.32 1298.73,4421.11 1334.6,4398.35C1349.67,4388.79 1379.87,4405.4 1379.87,4372.62Z" style="fill:rgb(96,153,92);stroke:rgb(96,153,92);stroke-width:4.09px;"/>
                    </g>
                </g>
            </g>
            <g transform="matrix(1,0,0,1,14.4595,21.8229)">
                <g transform="matrix(1,0,0,1,0,2)">
                    <g transform="matrix(2.515e-17,0.41073,-0.372463,2.28068e-17,3059.31,4203.39)">
                        <path d="M914.685,4372.62C916.212,4440.98 959.672,4531.35 1018.6,4550.27C1084.16,4571.32 1298.73,4421.11 1334.6,4398.35C1349.67,4388.79 1379.87,4405.4 1379.87,4372.62C1379.87,4339.84 1349.67,4356.45 1334.6,4346.89C1298.73,4324.13 1084.16,4173.92 1018.6,4194.97C959.672,4213.89 916.212,4304.26 914.685,4372.62Z" style="fill:white;stroke:white;stroke-width:6.07px;"/>
                    </g>
                    <g transform="matrix(0.358782,0.199937,-0.181309,0.325355,1727.81,3071.5)">
                        <path d="M914.685,4372.62C916.212,4440.98 959.672,4531.35 1018.6,4550.27C1084.16,4571.32 1298.73,4421.11 1334.6,4398.35C1349.67,4388.79 1379.87,4405.4 1379.87,4372.62C1379.87,4339.84 1349.67,4356.45 1334.6,4346.89C1298.73,4324.13 1084.16,4173.92 1018.6,4194.97C959.672,4213.89 916.212,4304.26 914.685,4372.62Z" style="fill:white;stroke:white;stroke-width:6.07px;"/>
                    </g>
                    <g transform="matrix(-0.358782,0.199937,0.181309,0.325355,1132.41,3071.5)">
                        <path d="M1379.87,4372.62C1379.87,4339.84 1349.67,4356.45 1334.6,4346.89C1298.73,4324.13 1084.16,4173.92 1018.6,4194.97C959.672,4213.89 916.212,4304.26 914.685,4372.62C916.212,4440.98 959.672,4531.35 1018.6,4550.27C1084.16,4571.32 1298.73,4421.11 1334.6,4398.35C1349.67,4388.79 1379.87,4405.4 1379.87,4372.62Z" style="fill:white;stroke:white;stroke-width:6.07px;"/>
                    </g>
                </g>
                <g transform="matrix(1,0,0,1,0,-2)">
                    <g transform="matrix(2.515e-17,-0.41073,-0.372463,-2.28068e-17,3059.31,5340.34)">
                        <path d="M914.685,4372.62C916.212,4440.98 959.672,4531.35 1018.6,4550.27C1084.16,4571.32 1298.73,4421.11 1334.6,4398.35C1349.67,4388.79 1379.87,4405.4 1379.87,4372.62C1379.87,4339.84 1349.67,4356.45 1334.6,4346.89C1298.73,4324.13 1084.16,4173.92 1018.6,4194.97C959.672,4213.89 916.212,4304.26 914.685,4372.62Z" style="fill:white;stroke:white;stroke-width:6.07px;"/>
                    </g>
                    <g transform="matrix(0.358782,-0.199937,-0.181309,-0.325355,1727.81,6472.23)">
                        <path d="M1379.87,4372.62C1379.87,4339.84 1349.67,4356.45 1334.6,4346.89C1298.73,4324.13 1084.16,4173.92 1018.6,4194.97C959.672,4213.89 916.212,4304.26 914.685,4372.62C916.212,4440.98 959.672,4531.35 1018.6,4550.27C1084.16,4571.32 1298.73,4421.11 1334.6,4398.35C1349.67,4388.79 1379.87,4405.4 1379.87,4372.62Z" style="fill:white;stroke:white;stroke-width:6.07px;"/>
                    </g>
                    <g transform="matrix(-0.358782,-0.199937,0.181309,-0.325355,1132.41,6472.23)">
                        <path d="M1379.87,4372.62C1379.87,4339.84 1349.67,4356.45 1334.6,4346.89C1298.73,4324.13 1084.16,4173.92 1018.6,4194.97C959.672,4213.89 916.212,4304.26 914.685,4372.62C916.212,4440.98 959.672,4531.35 1018.6,4550.27C1084.16,4571.32 1298.73,4421.11 1334.6,4398.35C1349.67,4388.79 1379.87,4405.4 1379.87,4372.62Z" style="fill:white;stroke:white;stroke-width:6.07px;"/>
                    </g>
                </g>
            </g>
            <g transform="matrix(1,0,0,1,-290.107,64.2224)">
                <circle cx="1736.11" cy="4727.64" r="42.506" style="fill:rgb(96,153,92);"/>
            </g>
        </g>
    </g>
</svg>
