<?xml version="1.0" encoding="UTF-8" standalone="no"?>
<!DOCTYPE svg PUBLIC "-//W3C//DTD SVG 1.1//EN" "http://www.w3.org/Graphics/SVG/1.1/DTD/svg11.dtd">
<svg width="100%" height="100%" viewBox="0 0 2126 2126" version="1.1" xmlns="http://www.w3.org/2000/svg" xmlns:xlink="http://www.w3.org/1999/xlink" xml:space="preserve" xmlns:serif="http://www.serif.com/" style="fill-rule:evenodd;clip-rule:evenodd;stroke-linecap:round;stroke-linejoin:round;stroke-miterlimit:1.5;">
    <g id="WINTER" transform="matrix(1,0,0,1,-1887.94,-4421.16)">
        <g id="WINTER-BACKGROUND" serif:id="WINTER BACKGROUND" transform="matrix(1,0,0,1,1097.91,410.419)">
            <g transform="matrix(0.849206,-1.06042,1.06042,0.849206,-5582.58,2697.35)">
                <circle cx="2059.42" cy="5332.35" r="539.402" style="fill:rgb(0,149,218);stroke:rgb(0,149,218);stroke-width:3.07px;"/>
            </g>
            <g transform="matrix(1.13926,-1.42261,1.42261,1.13926,-8087.76,1989.1)">
                <circle cx="2090.97" cy="5290.56" r="352.158" style="fill:rgb(84,182,231);"/>
            </g>
            <g transform="matrix(1.11043,-1.38662,1.38662,1.11043,-7985.25,1910.79)">
                <circle cx="2074.78" cy="5410.41" r="316.138" style="fill:rgb(0,149,218);"/>
            </g>
            <g transform="matrix(0.62388,-0.78152,0.78152,0.62388,-3259.84,3334.05)">
                <g transform="matrix(-0.246259,1.35897,-1.11628,-0.211515,7982.47,3538.7)">
                    <g transform="matrix(-1.19879,-0.00603671,0.00634213,-1.25944,3745.97,10789.7)">
                        <path d="M1672.05,4850.56C1681.76,4912.5 1465.36,4912.35 1474.28,4850.56C1482.68,4792.28 1523.72,4633.77 1523.72,4633.77L1622.6,4633.77C1623.22,4636.14 1662.76,4791.32 1672.05,4850.56Z" style="fill:rgb(84,182,231);stroke:rgb(0,149,218);stroke-width:5.41px;"/>
                    </g>
                    <g transform="matrix(0.764638,0.0735803,-0.0544165,0.92894,672.986,196.271)">
                        <path d="M1849.61,4667.17C1879.25,4661.02 1909.94,4657.78 1941.39,4657.78C1961.13,4657.78 1980.58,4659.06 1999.66,4661.53" style="fill:rgb(84,182,231);stroke:rgb(0,149,218);stroke-width:27.55px;stroke-linecap:square;"/>
                    </g>
                </g>
                <g transform="matrix(0.902524,1.04542,-0.857251,0.745616,4501.84,-744.08)">
                    <g transform="matrix(-1.19879,-0.00603671,0.00634213,-1.25944,3748.22,10801.6)">
                        <path d="M1672.05,4850.56C1681.76,4912.5 1465.36,4912.35 1474.28,4850.56C1482.68,4792.28 1523.72,4633.77 1523.72,4633.77L1622.6,4633.77C1623.22,4636.14 1662.76,4791.32 1672.05,4850.56Z" style="fill:rgb(84,182,231);stroke:rgb(0,149,218);stroke-width:5.38px;"/>
                    </g>
                    <g transform="matrix(0.764917,0.0574084,-0.0500489,0.930056,654.249,234.978)">
                        <path d="M1849.61,4667.17C1879.25,4661.02 1909.94,4657.78 1941.39,4657.78C1961.13,4657.78 1980.58,4659.06 1999.66,4661.53" style="fill:rgb(84,182,231);stroke:rgb(0,149,218);stroke-width:27.55px;stroke-linecap:square;"/>
                    </g>
                </g>
                <g transform="matrix(1.38041,-0.043759,0.0432848,1.13532,-991.375,-677.993)">
                    <g transform="matrix(-1.19879,-0.00603671,0.00634213,-1.25944,3748.22,10807.6)">
                        <path d="M1672.05,4850.56C1681.76,4912.5 1465.36,4912.35 1474.28,4850.56C1482.68,4792.28 1523.72,4633.77 1523.72,4633.77L1622.6,4633.77C1623.22,4636.14 1662.76,4791.32 1672.05,4850.56Z" style="fill:rgb(84,182,231);stroke:rgb(0,149,218);stroke-width:5.37px;"/>
                    </g>
                    <g transform="matrix(0.766007,0.0295245,-0.0292045,0.931371,554.94,296.556)">
                        <path d="M1849.61,4667.17C1879.25,4661.02 1909.94,4657.78 1941.39,4657.78C1961.13,4657.78 1980.58,4659.06 1999.66,4661.53" style="fill:rgb(84,182,231);stroke:rgb(0,149,218);stroke-width:27.55px;stroke-linecap:square;"/>
                    </g>
                </g>
                <g transform="matrix(0.815952,-1.1143,0.912288,0.677165,-4363.43,3681.32)">
                    <g transform="matrix(-1.19879,-0.00603671,0.00634213,-1.25944,3748.21,10813.6)">
                        <path d="M1672.05,4850.56C1681.76,4912.5 1465.36,4912.35 1474.28,4850.56C1482.68,4792.28 1523.72,4633.77 1523.72,4633.77L1622.6,4633.77C1623.22,4636.14 1662.76,4791.32 1672.05,4850.56Z" style="fill:rgb(84,182,231);stroke:rgb(0,149,218);stroke-width:5.41px;"/>
                    </g>
                    <g transform="matrix(0.76609,0.0388,-0.0269475,0.931031,544.338,285.861)">
                        <path d="M1849.61,4667.17C1879.25,4661.02 1909.94,4657.78 1941.39,4657.78C1961.13,4657.78 1980.58,4659.06 1999.66,4661.53" style="fill:rgb(84,182,231);stroke:rgb(0,149,218);stroke-width:27.55px;stroke-linecap:square;"/>
                    </g>
                </g>
                <g transform="matrix(-0.355163,-1.33466,1.09897,-0.288261,-3102.92,9029.79)">
                    <g transform="matrix(-1.19879,-0.00603671,0.00634213,-1.25944,3748.21,10818.6)">
                        <path d="M1672.05,4850.56C1681.76,4912.5 1465.36,4912.35 1474.28,4850.56C1482.68,4792.28 1523.72,4633.77 1523.72,4633.77L1622.6,4633.77C1623.22,4636.14 1662.76,4791.32 1672.05,4850.56Z" style="fill:rgb(84,182,231);stroke:rgb(0,149,218);stroke-width:5.4px;"/>
                    </g>
                    <g transform="matrix(0.766132,0.0341709,-0.0253842,0.931199,536.852,293.845)">
                        <path d="M1849.61,4667.17C1879.25,4661.02 1909.94,4657.78 1941.39,4657.78C1961.13,4657.78 1980.58,4659.06 1999.66,4661.53" style="fill:rgb(84,182,231);stroke:rgb(0,149,218);stroke-width:27.55px;stroke-linecap:square;"/>
                    </g>
                </g>
                <g transform="matrix(-1.26433,-0.555802,0.448836,-1.04373,1939.34,11414.1)">
                    <g transform="matrix(-1.19879,-0.00603671,0.00634213,-1.25944,3748.21,10813.6)">
                        <path d="M1672.05,4850.56C1681.76,4912.5 1465.36,4912.35 1474.28,4850.56C1482.68,4792.28 1523.72,4633.77 1523.72,4633.77L1622.6,4633.77C1623.22,4636.14 1662.76,4791.32 1672.05,4850.56Z" style="fill:rgb(84,182,231);stroke:rgb(0,149,218);stroke-width:5.37px;"/>
                    </g>
                    <g transform="matrix(0.765825,0.0336526,-0.0338489,0.931242,576.408,290.138)">
                        <path d="M1849.61,4667.17C1879.25,4661.02 1909.94,4657.78 1941.39,4657.78C1961.13,4657.78 1980.58,4659.06 1999.66,4661.53" style="fill:rgb(84,182,231);stroke:rgb(0,149,218);stroke-width:27.55px;stroke-linecap:square;"/>
                    </g>
                </g>
                <g transform="matrix(-1.21826,0.650604,-0.535065,-1.00226,6881.98,8923.97)">
                    <g transform="matrix(-1.19879,-0.00603671,0.00634213,-1.25944,3748.21,10813.6)">
                        <path d="M1672.05,4850.56C1681.76,4912.5 1465.36,4912.35 1474.28,4850.56C1482.68,4792.28 1523.72,4633.77 1523.72,4633.77L1622.6,4633.77C1623.22,4636.14 1662.76,4791.32 1672.05,4850.56Z" style="fill:rgb(84,182,231);stroke:rgb(0,149,218);stroke-width:5.39px;"/>
                    </g>
                    <g transform="matrix(0.76582,0.0407126,-0.0333815,0.93093,574.512,279.47)">
                        <path d="M1849.61,4667.17C1879.25,4661.02 1909.94,4657.78 1941.39,4657.78C1961.13,4657.78 1980.58,4659.06 1999.66,4661.53" style="fill:rgb(84,182,231);stroke:rgb(0,149,218);stroke-width:27.55px;stroke-linecap:square;"/>
                    </g>
                </g>
            </g>
            <g transform="matrix(1.03099,-1.28741,1.28741,1.03099,-6087.57,1396.12)">
                <circle cx="1272.46" cy="5125.02" r="125.305" style="fill:rgb(0,149,218);"/>
            </g>
            <g transform="matrix(1,0,0,1,194.502,-7.13162)">
                <circle cx="1627.84" cy="5048.9" r="369.771" style="fill:none;stroke:rgb(0,149,218);stroke-width:41.67px;"/>
            </g>
            <g transform="matrix(0.680377,-0.849598,0.849598,0.680377,-3399.14,2635.91)">
                <circle cx="1272.46" cy="5125.02" r="125.305" style="fill:rgb(84,182,231);"/>
            </g>
        </g>
        <g id="winter-emblem" serif:id="winter emblem" transform="matrix(1,0,0,1,-8.10889,17.2852)">
            <g transform="matrix(0.688163,0,0,0.688163,917.873,1688.32)">
                <path d="M2863.51,5319.43L2863.51,5219.66L2863.92,5219.66L2863.92,5216.21L2719.97,5084.4L2719.98,5084.39L2706.37,5001.42L2790.21,5007.68L2790.23,5007.67L2863.92,5075.15L2863.92,4916.72L2863.94,4916.72L2915.94,4850.65L2967.95,4916.72L2967.96,4916.72L2967.96,5076.08L3042.68,5007.67L3042.69,5007.68L3126.54,5001.42L3112.92,5084.39L3112.94,5084.4L2967.96,5217.14L2967.96,5264.31L2967.55,5264.31L2967.55,5319.19L2995.76,5335.62L3084.98,5284.11L3085.19,5284.46L3088.18,5282.74L3130.35,5092.16L3130.37,5092.17L3195.42,5038.89L3231.92,5114.64L3231.93,5114.64L3210.35,5212.2L3347.55,5132.99L3347.56,5133.01L3430.78,5145.01L3399.56,5223.08L3399.57,5223.1L3261.56,5302.77L3358.16,5333.27L3358.15,5333.29L3405.5,5402.77L3326.84,5432.47L3326.84,5432.48L3139.39,5373.31L3098.54,5396.89L3098.34,5396.53L3052.84,5422.8L3052.84,5458.52L3141.62,5509.77L3141.41,5510.13L3144.4,5511.86L3330.53,5453.09L3330.53,5453.11L3409.2,5482.81L3361.85,5552.29L3361.85,5552.31L3266.57,5582.39L3403.77,5661.6L3403.76,5661.62L3434.98,5739.69L3351.76,5751.69L3351.75,5751.7L3213.74,5672.03L3235.63,5770.93L3235.61,5770.94L3199.11,5846.68L3134.06,5793.41L3134.05,5793.41L3091.58,5601.49L3050.72,5577.91L3050.93,5577.55L3009.63,5553.7L2973.36,5574.82L2973.36,5667.71L2972.95,5667.71L2972.95,5671.16L3116.91,5802.97L3116.89,5802.98L3130.51,5885.96L3046.66,5879.69L3046.65,5879.7L2972.95,5812.23L2972.95,5970.65L2972.93,5970.65L2920.93,6036.72L2868.93,5970.65L2868.91,5970.65L2868.91,5811.3L2794.2,5879.7L2794.18,5879.69L2710.34,5885.96L2723.95,5802.98L2723.94,5802.97L2868.91,5670.23L2868.91,5623.06L2869.32,5623.06L2869.32,5581.36L2829.75,5558.31L2751.89,5603.27L2751.68,5602.91L2748.69,5604.63L2706.52,5795.21L2706.5,5795.2L2641.45,5848.48L2604.96,5772.73L2604.94,5772.73L2626.53,5675.17L2489.33,5754.38L2489.32,5754.36L2406.1,5742.36L2437.32,5664.29L2437.31,5664.28L2575.31,5584.6L2478.71,5554.1L2478.72,5554.08L2431.37,5484.6L2510.03,5454.9L2510.04,5454.89L2697.48,5514.07L2738.33,5490.48L2738.54,5490.84L2778.63,5467.69L2778.63,5425.73L2695.26,5377.6L2695.46,5377.24L2692.47,5375.52L2506.35,5434.28L2506.34,5434.26L2427.68,5404.57L2475.03,5335.08L2475.02,5335.07L2570.31,5304.98L2433.11,5225.77L2433.12,5225.75L2401.9,5147.68L2485.12,5135.69L2485.13,5135.67L2623.13,5215.35L2601.25,5116.44L2601.26,5116.44L2637.76,5040.69L2702.81,5093.96L2702.83,5093.96L2745.3,5285.88L2786.15,5309.46L2785.95,5309.82L2833.18,5337.09L2863.51,5319.43Z" style="fill:white;"/>
                <path d="M3372.57,5136.62C3390.47,5071.18 3417.4,5013.04 3451.14,5059.32C3431.65,5031.89 3401.39,5012.31 3365.7,5007.16L3448.92,5019.16C3487.5,5024.72 3521.4,5047.68 3540.89,5081.43C3560.38,5115.19 3563.31,5156.03 3548.84,5192.22L3517.62,5270.29L3484.41,5292.77L3510.58,5331.17C3531.77,5362.26 3538.06,5401.09 3527.86,5437.17C3528.8,5439.58 3529.66,5442.04 3530.45,5444.53C3542.18,5481.7 3536.22,5522.2 3514.27,5554.41L3498.79,5577.13C3508.7,5588.26 3516.5,5601 3521.92,5614.69L3521.82,5614.41L3553.04,5692.48C3567.51,5728.67 3564.58,5769.51 3545.09,5803.26C3525.6,5837.02 3491.7,5859.97 3453.12,5865.54L3369.9,5877.54L3351.78,5878.84L3351.75,5878.85L3343.4,5878.58C3337.55,5878.19 3331.74,5877.41 3326.03,5876.2L3313.66,5901.88C3296.74,5936.99 3264.64,5962.41 3226.58,5970.83L3224.86,5971.16L3224.28,5971.82C3197.96,6000.57 3159.9,6015.66 3121.03,6012.75L3093.62,6010.7C3088.95,6024.84 3081.85,6037.88 3072.81,6049.31L3072.85,6049.29L3020.85,6115.36C2996.74,6145.99 2959.91,6163.87 2920.93,6163.87C2881.95,6163.87 2845.12,6145.99 2821.01,6115.36L2769.01,6049.29L2769.05,6049.31C2759.99,6037.85 2752.87,6024.8 2748.21,6010.63L2719.81,6012.75C2681.68,6015.6 2644.33,6001.14 2618.1,5973.41L2613.98,5972.63C2575.92,5964.2 2543.83,5938.79 2526.91,5903.67L2514.97,5878.89L2514.16,5879.08L2514,5879.11C2511.62,5879.58 2509.21,5879.98 2506.78,5880.3L2505.96,5880.44L2504.32,5880.6L2501.68,5880.92L2499.45,5881.08L2497.68,5881.25L2496.49,5881.29L2495.54,5881.36L2491.22,5881.47L2489.33,5881.53L2483.95,5881.42L2480.11,5881.17C2477.14,5880.96 2474.21,5880.65 2471.3,5880.22L2471.17,5880.21L2387.95,5868.21C2349.37,5862.65 2315.47,5839.7 2295.98,5805.94C2276.49,5772.18 2273.57,5731.35 2288.04,5695.15L2319.26,5617.08L2319.26,5617.09C2324.69,5603.48 2332.47,5590.81 2342.34,5579.74L2326.3,5556.2C2305.11,5525.11 2298.82,5486.28 2309.01,5450.2C2308.07,5447.79 2307.21,5445.33 2306.43,5442.85C2294.69,5405.68 2300.65,5365.17 2322.61,5332.96L2338.14,5310.17C2328.47,5299.43 2320.62,5286.89 2315.06,5272.96L2283.84,5194.89C2269.36,5158.7 2272.29,5117.87 2291.78,5084.11C2311.27,5050.35 2345.17,5027.4 2383.75,5021.84L2466.97,5009.84L2474.27,5111.56C2474.87,5094.36 2479.02,5077.23 2486.72,5061.24L2523.22,4985.49C2540.14,4950.38 2572.23,4924.96 2610.29,4916.54L2612.02,4916.21L2612.59,4915.55C2638.91,4886.8 2676.97,4871.71 2715.84,4874.62L2743.28,4876.67C2747.82,4862.92 2754.77,4849.85 2764.03,4838.08L2816.03,4772.01C2840.14,4741.38 2876.96,4723.5 2915.94,4723.5C2954.92,4723.5 2991.75,4741.38 3015.86,4772.01L3067.86,4838.08L3047.6,4879.81L3117.06,4874.62C3155.2,4871.77 3192.54,4886.23 3218.77,4913.96L3222.89,4914.75C3260.95,4923.17 3293.05,4948.58 3309.97,4983.7L3346.46,5059.45L3317.34,5105.81L3325.11,5119.26L3335.99,5112.98L3342.18,5136.09L3210.35,5212.2L3231.93,5114.64L3231.92,5114.64L3195.42,5038.89L3130.37,5092.17L3130.35,5092.16L3088.18,5282.74L3085.19,5284.46L3084.98,5284.11L2995.76,5335.62L2967.55,5319.19L2967.55,5264.31L2967.96,5264.31L2967.96,5217.14L3112.94,5084.4L3112.92,5084.39L3126.54,5001.42L3042.69,5007.68L3042.68,5007.67L2967.96,5076.08L2967.96,4916.72L2967.95,4916.72L2915.94,4850.65L2863.94,4916.72L2863.92,4916.72L2863.92,5075.15L2790.23,5007.67L2790.21,5007.68L2708.56,5001.58C2702.75,4979.35 2692.42,4966.04 2675.36,4969.81L2670.26,4971.08C2663.08,5010.65 2686.98,5047.94 2715.31,5076.9C2715.38,5069.27 2715.31,5061.74 2715.06,5054.42L2719.98,5084.39L2719.97,5084.4L2863.92,5216.21L2863.92,5219.66L2863.51,5219.66L2863.51,5319.43L2833.18,5337.09L2785.95,5309.82L2786.15,5309.46L2745.3,5285.88L2702.83,5093.96L2702.81,5093.96L2688.07,5081.89C2670.38,5024.68 2647.64,4975.1 2626.2,4998.52L2623.79,5001.29C2612.7,5018.85 2612.08,5041.35 2617.42,5065.23L2624.08,5069.07L2601.26,5116.44L2601.25,5116.44L2623.13,5215.35L2485.13,5135.67L2485.12,5135.69L2439.38,5142.28C2416.29,5090.07 2389.99,5046.15 2375.01,5072.1C2337.28,5137.45 2375.47,5189.06 2416.88,5222C2420.91,5219.92 2425.07,5218.05 2429.38,5216.42L2433.12,5225.75L2433.11,5225.77L2570.31,5304.98L2475.02,5335.07L2475.03,5335.08L2427.68,5404.57L2506.34,5434.26L2506.35,5434.28L2692.47,5375.52L2695.46,5377.24L2695.26,5377.6L2778.63,5425.73L2778.63,5467.69L2738.54,5490.84L2738.33,5490.48L2697.48,5514.07L2510.04,5454.89L2510.03,5454.9L2431.37,5484.6L2478.72,5554.08L2478.71,5554.1L2575.31,5584.6L2437.31,5664.28L2437.32,5664.29L2406.1,5742.36L2489.32,5754.36L2489.33,5754.38L2626.53,5675.17L2604.94,5772.73L2604.96,5772.73L2641.45,5848.48L2706.5,5795.2L2706.52,5795.21L2748.69,5604.63L2751.68,5602.91L2751.89,5603.27L2829.75,5558.31L2869.32,5581.36L2869.32,5623.06L2868.91,5623.06L2868.91,5670.23L2723.94,5802.97L2723.95,5802.98L2710.34,5885.96L2794.18,5879.69L2794.2,5879.7L2868.91,5811.3L2868.91,5970.65L2868.93,5970.65L2920.93,6036.72L2972.93,5970.65L2972.95,5970.65L2972.95,5812.23L3046.65,5879.7L3046.66,5879.69L3130.51,5885.96L3116.89,5802.98L3116.91,5802.97L2972.95,5671.16L2972.95,5667.71L2973.36,5667.71L2973.36,5574.82L3009.63,5553.7L3050.93,5577.55L3050.72,5577.91L3091.58,5601.49L3134.05,5793.41L3134.06,5793.41L3199.11,5846.68L3235.61,5770.94L3235.63,5770.93L3213.74,5672.03L3241.63,5688.13L3241.16,5688.98L3246.2,5711.75L3246.67,5711.41C3245.99,5703.59 3245.05,5696.17 3243.74,5689.35L3351.75,5751.7L3351.76,5751.69L3387.19,5746.58L3379.14,5776.63L3387.78,5781.23C3390.61,5782.61 3393.43,5784 3396.25,5785.38L3403.75,5788.74C3403.51,5788 3397.84,5770.56 3389.02,5746.31L3434.98,5739.69L3403.76,5661.62L3403.77,5661.6L3266.57,5582.39L3361.85,5552.31L3361.85,5552.29L3409.2,5482.81L3348.98,5460.07C3352.02,5460.33 3355.08,5460.44 3358.15,5460.44L3358.14,5460.42L3348.97,5460.07L3330.53,5453.11L3330.53,5453.09L3144.4,5511.86L3141.41,5510.13L3141.62,5509.77L3052.84,5458.52L3052.84,5422.8L3098.34,5396.53L3098.54,5396.89L3139.39,5373.31L3326.84,5432.48L3326.84,5432.47L3405.5,5402.77L3358.15,5333.29L3358.16,5333.27L3261.56,5302.77L3399.57,5223.1L3399.56,5223.08L3403.05,5214.34C3410.82,5217.23 3418.15,5220.86 3424.99,5225.12C3437.49,5179.94 3454.29,5138.62 3474.67,5133.35C3474.77,5110.47 3468.72,5088.74 3457.92,5069.92C3472.57,5096.39 3446.21,5142.74 3415.57,5183.04L3430.78,5145.01L3372.57,5136.62ZM2972.93,6097.8L2972.89,6097.8L2972.93,6097.8ZM2963.86,6097.48L2964.76,6097.51L2962.68,6097.35L2963.86,6097.48ZM2954.91,6096.52L2955.74,6096.61L2954.59,6096.46L2954.91,6096.52ZM2946.12,6094.95L2946.25,6094.97L2945.79,6094.86L2946.12,6094.95ZM2937.51,6092.77L2937.96,6092.89L2937.18,6092.66L2937.51,6092.77ZM2920.95,6086.69L2921.32,6086.84L2920.51,6086.48L2920.95,6086.69ZM2913.06,6082.82L2913.12,6082.85L2913.03,6082.81L2913.06,6082.82ZM2905.46,6078.42L2905.92,6078.69L2904.62,6077.85L2905.46,6078.42ZM2898.18,6073.51L2899.24,6074.22L2897.63,6073.08L2898.18,6073.51ZM2884.94,6062.42L2885.75,6063.15L2885.76,6063.15L2884.95,6062.38L2884.94,6062.42ZM2740.32,5994.89L2744.44,5996.71L2744.42,5996.63L2738.97,5994.22L2740.32,5994.89ZM2734.93,5992.21L2738.16,5993.82L2730.58,5989.79L2734.93,5992.21ZM2723.03,5985.04C2724.21,5985.84 2725.4,5986.62 2726.61,5987.38C2727.82,5988.14 2729.03,5988.89 2730.27,5989.61L2723.03,5985.04ZM2714.88,5979.08C2715.98,5979.96 2717.1,5980.82 2718.23,5981.66C2719.37,5982.51 2720.52,5983.32 2721.68,5984.11L2714.88,5979.08ZM2710.36,5975.3L2714.66,5978.89L2708.57,5973.65L2710.36,5975.3ZM2701.36,5966.57C2702.28,5967.55 2703.22,5968.52 2704.16,5969.47C2705.12,5970.42 2706.08,5971.35 2707.07,5972.27L2701.36,5966.57ZM2697.77,5962.48L2697.7,5962.51L2697.78,5962.6L2700.32,5965.41L2697.78,5962.47L2697.77,5962.48ZM3351.75,5878.82L3351.75,5878.84L3351.76,5878.84L3351.75,5878.82ZM3340.51,5846.15L3329.89,5868.18L3335.77,5871.32C3338.6,5872.7 3341.42,5874.08 3344.24,5875.47L3351.74,5878.83L3348.28,5868.46L3340.51,5846.15ZM3141.86,5856.78L3141.86,5856.78L3141.81,5856.73L3141.86,5856.78ZM3137.45,5851.76L3138.35,5852.78L3137.25,5851.5L3137.19,5851.42L3137.45,5851.76ZM3132.5,5845.35L3133.15,5846.18L3131.87,5844.41L3132.5,5845.35ZM3127.94,5838.57L3128.2,5838.95L3127.93,5838.55L3127.77,5838.28L3127.94,5838.57ZM3123.82,5831.52L3124.35,5832.43L3123.36,5830.61L3123.82,5831.52ZM3247.33,5779.47L3242.81,5785.1L3244.83,5797.42L3246.24,5799.55L3246.84,5790.92L3247.33,5779.47ZM3403.76,5788.77L3403.75,5788.75L3400.49,5788.64L3403.76,5788.77ZM3405.37,5788.72L3403.79,5788.75L3403.76,5788.77L3405.37,5788.72ZM3413.04,5788.39L3410.32,5788.57L3411.63,5788.52L3413.04,5788.39ZM3394.07,5788.4L3394.99,5788.44L3390.43,5787.98L3394.07,5788.4ZM3419.74,5787.75L3418.01,5787.93L3419.42,5787.8L3419.88,5787.73L3419.74,5787.75ZM3384.55,5787.31L3386.14,5787.49L3381.38,5786.71L3384.55,5787.31ZM3428.3,5786.35L3426.13,5786.76L3427.11,5786.61L3428.3,5786.35ZM3376.68,5785.81L3377.44,5785.95L3376.68,5785.78L3376.68,5785.81ZM3434.97,5784.87L3433.69,5785.17L3434.68,5784.95L3434.97,5784.87ZM3443.13,5782.49L3441.35,5783.06L3442.11,5782.85L3443.13,5782.49ZM3449.67,5780.18L3448.48,5780.62L3449.37,5780.3L3449.67,5780.18ZM3457.48,5776.83L3455.75,5777.63L3456.46,5777.33L3457.48,5776.83ZM3463.7,5773.74L3462.34,5774.44L3463.35,5773.94L3463.7,5773.74ZM3471.09,5769.44L3469.28,5770.56L3470.02,5770.14L3471.09,5769.44ZM3476.83,5765.65L3475.36,5766.65L3476.46,5765.93L3476.83,5765.65ZM3483.62,5760.52L3481.92,5761.88L3482.64,5761.34L3483.62,5760.52ZM3488.84,5756.1L3487.62,5757.15L3488.55,5756.37L3488.84,5756.1ZM3494.88,5750.26L3493.57,5751.59L3494.16,5751.03L3494.88,5750.26ZM3499.57,5745.2L3499.04,5745.78L3499.46,5745.34L3499.57,5745.2ZM3504.83,5738.73L3504.05,5739.75L3504.43,5739.29L3504.83,5738.73ZM3513.51,5725.78L3512.99,5726.66L3513.26,5726.25L3513.51,5725.78ZM3240.31,5716.07L3241.85,5714.94L3231.94,5709.22L3240.31,5716.07ZM3520.61,5711.71L3520.1,5712.89L3520.35,5712.36L3520.61,5711.71ZM3523.25,5705.08L3523.11,5705.43L3523.25,5705.08ZM3525.88,5696.94L3525.45,5698.42L3525.64,5697.83L3525.88,5696.94ZM3527.67,5690.09L3527.42,5691.12L3527.61,5690.39L3527.67,5690.09ZM3529.19,5682.38L3529.08,5683.08L3529.12,5682.85L3529.19,5682.38ZM3530.19,5675.03L3530.12,5675.63L3530.17,5675.25L3530.19,5675.03ZM3033.31,5663.66L3036.45,5663.65L3034.7,5658.83L3033.31,5663.66ZM3529.72,5644.35L3529.78,5644.78L3529.72,5644.35ZM3526.66,5629.07L3526.82,5629.66L3526.74,5629.31L3526.66,5629.07ZM2359.23,5511.67C2358.56,5512.81 2357.98,5514.19 2357.47,5515.8C2351.24,5535.53 2350.29,5553.22 2353.09,5569.03C2359.36,5563.47 2366.26,5558.48 2373.73,5554.16L2399.97,5539.01C2396.78,5534.45 2393.64,5530.23 2390.59,5526.47L2382.77,5523.52C2374.45,5520.38 2366.56,5516.41 2359.23,5511.67ZM2670.43,5434.86L2663.59,5446.71L2689.88,5492.25L2690.88,5491.67L2682.44,5467.34C2680.3,5461.44 2678.15,5455.53 2676.01,5449.62L2670.43,5434.86ZM3359.68,5460.39L3358.18,5460.42L3358.15,5460.44L3359.68,5460.39ZM3345.96,5435.55L3342.93,5455.18C3351.94,5458.64 3357.79,5460.32 3358.14,5460.42L3353.66,5451.08L3345.96,5435.55ZM3368.31,5459.99L3365.51,5460.19L3366.94,5460.14L3368.31,5459.99ZM3240.07,5429.32C3245.98,5436.55 3251.04,5444.38 3255.2,5452.64L3268.07,5448.58L3262.11,5438.66L3260.22,5435.69L3240.07,5429.32ZM2638.74,5412.06L2637.81,5412.64C2636.01,5414.97 2634.29,5417.36 2632.65,5419.78L2632.72,5420.37C2634.61,5417.52 2636.61,5414.75 2638.74,5412.06ZM3480.53,5367.72L3480.24,5368.8L3480.34,5368.49L3480.53,5367.72ZM3482.56,5359.51L3482.18,5361.18L3482.44,5360.14L3482.56,5359.51ZM3484.07,5350.77L3483.9,5352.06L3483.97,5351.71L3484.07,5350.77ZM3484.95,5342.61L3484.82,5344.11L3484.92,5343.22L3484.95,5342.61ZM3485.09,5325.96L3485.11,5326.48L3485.11,5326.18L3485.09,5325.96ZM2390.69,5239.92C2366.82,5184.53 2338.7,5134.99 2323,5162.18C2290.72,5218.09 2314,5263.94 2347.36,5296.64L2369.64,5263.94C2375.59,5255.12 2382.65,5247.03 2390.69,5239.92ZM2579.62,4991.67C2577.77,4991.63 2575.83,4991.84 2573.79,4992.29C2510.29,5006.34 2504.55,5052.39 2519.49,5101.28L2519.96,5100.47L2525.15,5113.45L2548.7,5025.55L2584.91,5046.45L2580.89,5022C2579.23,5011.88 2578.82,5001.7 2579.62,4991.67ZM3455.5,5065.87L3457.22,5068.7L3456.6,5067.6L3455.5,5065.87ZM3452.17,5060.8L3453.93,5063.38L3453.48,5062.67L3452.17,5060.8ZM2607.43,5025.55C2602.65,5035.35 2600,5045.07 2599.11,5054.65L2612.75,5062.53C2611.8,5048.84 2610.11,5036.22 2607.43,5025.55ZM2736.77,4947.87C2723.89,4921.18 2709.91,4907.1 2696.45,4921.8L2692.72,4926.07C2701.8,4930.38 2710.39,4935.82 2718.33,4942.32L2736.77,4957.43L2736.77,4947.87Z" style="fill:rgb(0,149,218);"/>
            </g>
            <g transform="matrix(0.688163,0,0,0.688163,917.873,1688.32)">
                <path d="M2863.51,5319.43L2863.51,5219.66L2863.92,5219.66L2863.92,5216.21L2719.97,5084.4L2719.98,5084.39L2706.37,5001.42L2790.21,5007.68L2790.23,5007.67L2863.92,5075.15L2863.92,4916.72L2863.94,4916.72L2915.94,4850.65L2967.95,4916.72L2967.96,4916.72L2967.96,5076.08L3042.68,5007.67L3042.69,5007.68L3126.54,5001.42L3112.92,5084.39L3112.94,5084.4L2967.96,5217.14L2967.96,5264.31L2967.55,5264.31L2967.55,5319.19L2995.76,5335.62L3084.98,5284.11L3085.19,5284.46L3088.18,5282.74L3130.35,5092.16L3130.37,5092.17L3195.42,5038.89L3231.92,5114.64L3231.93,5114.64L3210.35,5212.2L3347.55,5132.99L3347.56,5133.01L3430.78,5145.01L3399.56,5223.08L3399.57,5223.1L3261.56,5302.77L3358.16,5333.27L3358.15,5333.29L3405.5,5402.77L3326.84,5432.47L3326.84,5432.48L3139.39,5373.31L3098.54,5396.89L3098.34,5396.53L3052.84,5422.8L3052.84,5458.52L3141.62,5509.77L3141.41,5510.13L3144.4,5511.86L3330.53,5453.09L3330.53,5453.11L3409.2,5482.81L3361.85,5552.29L3361.85,5552.31L3266.57,5582.39L3403.77,5661.6L3403.76,5661.62L3434.98,5739.69L3351.76,5751.69L3351.75,5751.7L3213.74,5672.03L3235.63,5770.93L3235.61,5770.94L3199.11,5846.68L3134.06,5793.41L3134.05,5793.41L3091.58,5601.49L3050.72,5577.91L3050.93,5577.55L3009.63,5553.7L2973.36,5574.82L2973.36,5667.71L2972.95,5667.71L2972.95,5671.16L3116.91,5802.97L3116.89,5802.98L3130.51,5885.96L3046.66,5879.69L3046.65,5879.7L2972.95,5812.23L2972.95,5970.65L2972.93,5970.65L2920.93,6036.72L2868.93,5970.65L2868.91,5970.65L2868.91,5811.3L2794.2,5879.7L2794.18,5879.69L2710.34,5885.96L2723.95,5802.98L2723.94,5802.97L2868.91,5670.23L2868.91,5623.06L2869.32,5623.06L2869.32,5581.36L2829.75,5558.31L2751.89,5603.27L2751.68,5602.91L2748.69,5604.63L2706.52,5795.21L2706.5,5795.2L2641.45,5848.48L2604.96,5772.73L2604.94,5772.73L2626.53,5675.17L2489.33,5754.38L2489.32,5754.36L2406.1,5742.36L2437.32,5664.29L2437.31,5664.28L2575.31,5584.6L2478.71,5554.1L2478.72,5554.08L2431.37,5484.6L2510.03,5454.9L2510.04,5454.89L2697.48,5514.07L2738.33,5490.48L2738.54,5490.84L2778.63,5467.69L2778.63,5425.73L2695.26,5377.6L2695.46,5377.24L2692.47,5375.52L2506.35,5434.28L2506.34,5434.26L2427.68,5404.57L2475.03,5335.08L2475.02,5335.07L2570.31,5304.98L2433.11,5225.77L2433.12,5225.75L2401.9,5147.68L2485.12,5135.69L2485.13,5135.67L2623.13,5215.35L2601.25,5116.44L2601.26,5116.44L2637.76,5040.69L2702.81,5093.96L2702.83,5093.96L2745.3,5285.88L2786.15,5309.46L2785.95,5309.82L2833.18,5337.09L2863.51,5319.43Z" style="fill:white;"/>
            </g>
            <g transform="matrix(0.172846,0,0,0.172846,2576.51,4443.52)">
                <path d="M2012.55,5442.72L2279.01,5597.89L2279.01,5908.23L2012.55,6063.4L1746.09,5908.23L1746.09,5597.89L2012.55,5442.72Z" style="fill:rgb(0,149,218);"/>
            </g>
        </g>
    </g>
</svg>
