<?xml version="1.0" encoding="UTF-8" standalone="no"?>
<!DOCTYPE svg PUBLIC "-//W3C//DTD SVG 1.1//EN" "http://www.w3.org/Graphics/SVG/1.1/DTD/svg11.dtd">
<svg width="100%" height="100%" viewBox="0 0 2126 2126" version="1.1" xmlns="http://www.w3.org/2000/svg" xmlns:xlink="http://www.w3.org/1999/xlink" xml:space="preserve" xmlns:serif="http://www.serif.com/" style="fill-rule:evenodd;clip-rule:evenodd;stroke-linecap:round;stroke-linejoin:round;stroke-miterlimit:1.5;">
    <g id="SUMMER" transform="matrix(1,0,0,1,-3148.51,-5392.92)">
        <g id="SUMMER-BACKGROUND" serif:id="SUMMER BACKGROUND" transform="matrix(1,0,0,1,2357.57,1380.86)">
            <g transform="matrix(0.849206,-1.06042,1.06042,0.849206,-5582.58,2697.35)">
                <circle cx="2059.42" cy="5332.35" r="539.402" style="fill:rgb(232,103,32);stroke:rgb(232,103,32);stroke-width:3.07px;"/>
            </g>
            <g transform="matrix(1.13926,-1.42261,1.42261,1.13926,-8087.76,1989.1)">
                <circle cx="2090.97" cy="5290.56" r="352.158" style="fill:rgb(251,173,24);"/>
            </g>
            <g transform="matrix(1.11043,-1.38662,1.38662,1.11043,-7985.25,1910.79)">
                <circle cx="2074.78" cy="5410.41" r="316.138" style="fill:rgb(232,103,32);"/>
            </g>
            <g transform="matrix(0.62388,-0.78152,0.78152,0.62388,-3259.84,3334.05)">
                <g transform="matrix(-0.246259,1.35897,-1.11628,-0.211515,7982.47,3538.7)">
                    <g transform="matrix(-1.19879,-0.00603671,0.00634213,-1.25944,3745.97,10789.7)">
                        <path d="M1672.05,4850.56C1681.76,4912.5 1465.36,4912.35 1474.28,4850.56C1482.68,4792.28 1523.72,4633.77 1523.72,4633.77L1622.6,4633.77C1623.22,4636.14 1662.76,4791.32 1672.05,4850.56Z" style="fill:rgb(251,173,24);stroke:rgb(232,103,32);stroke-width:5.41px;"/>
                    </g>
                    <g transform="matrix(0.764638,0.0735803,-0.0544165,0.92894,672.986,196.271)">
                        <path d="M1849.61,4667.17C1879.25,4661.02 1909.94,4657.78 1941.39,4657.78C1961.13,4657.78 1980.58,4659.06 1999.66,4661.53" style="fill:rgb(251,173,24);stroke:rgb(232,103,32);stroke-width:27.55px;stroke-linecap:square;"/>
                    </g>
                </g>
                <g transform="matrix(0.902524,1.04542,-0.857251,0.745616,4501.84,-744.08)">
                    <g transform="matrix(-1.19879,-0.00603671,0.00634213,-1.25944,3748.22,10801.6)">
                        <path d="M1672.05,4850.56C1681.76,4912.5 1465.36,4912.35 1474.28,4850.56C1482.68,4792.28 1523.72,4633.77 1523.72,4633.77L1622.6,4633.77C1623.22,4636.14 1662.76,4791.32 1672.05,4850.56Z" style="fill:rgb(251,173,24);stroke:rgb(232,103,32);stroke-width:5.38px;"/>
                    </g>
                    <g transform="matrix(0.764917,0.0574084,-0.0500489,0.930056,654.249,234.978)">
                        <path d="M1849.61,4667.17C1879.25,4661.02 1909.94,4657.78 1941.39,4657.78C1961.13,4657.78 1980.58,4659.06 1999.66,4661.53" style="fill:rgb(251,173,24);stroke:rgb(232,103,32);stroke-width:27.55px;stroke-linecap:square;"/>
                    </g>
                </g>
                <g transform="matrix(1.38041,-0.043759,0.0432848,1.13532,-991.375,-677.993)">
                    <g transform="matrix(-1.19879,-0.00603671,0.00634213,-1.25944,3748.22,10807.6)">
                        <path d="M1672.05,4850.56C1681.76,4912.5 1465.36,4912.35 1474.28,4850.56C1482.68,4792.28 1523.72,4633.77 1523.72,4633.77L1622.6,4633.77C1623.22,4636.14 1662.76,4791.32 1672.05,4850.56Z" style="fill:rgb(251,173,24);stroke:rgb(232,103,32);stroke-width:5.37px;"/>
                    </g>
                    <g transform="matrix(0.766007,0.0295245,-0.0292045,0.931371,554.94,296.556)">
                        <path d="M1849.61,4667.17C1879.25,4661.02 1909.94,4657.78 1941.39,4657.78C1961.13,4657.78 1980.58,4659.06 1999.66,4661.53" style="fill:rgb(251,173,24);stroke:rgb(232,103,32);stroke-width:27.55px;stroke-linecap:square;"/>
                    </g>
                </g>
                <g transform="matrix(0.815952,-1.1143,0.912288,0.677165,-4363.43,3681.32)">
                    <g transform="matrix(-1.19879,-0.00603671,0.00634213,-1.25944,3748.21,10813.6)">
                        <path d="M1672.05,4850.56C1681.76,4912.5 1465.36,4912.35 1474.28,4850.56C1482.68,4792.28 1523.72,4633.77 1523.72,4633.77L1622.6,4633.77C1623.22,4636.14 1662.76,4791.32 1672.05,4850.56Z" style="fill:rgb(251,173,24);stroke:rgb(232,103,32);stroke-width:5.41px;"/>
                    </g>
                    <g transform="matrix(0.76609,0.0388,-0.0269475,0.931031,544.338,285.861)">
                        <path d="M1849.61,4667.17C1879.25,4661.02 1909.94,4657.78 1941.39,4657.78C1961.13,4657.78 1980.58,4659.06 1999.66,4661.53" style="fill:rgb(251,173,24);stroke:rgb(232,103,32);stroke-width:27.55px;stroke-linecap:square;"/>
                    </g>
                </g>
                <g transform="matrix(-0.355163,-1.33466,1.09897,-0.288261,-3102.92,9029.79)">
                    <g transform="matrix(-1.19879,-0.00603671,0.00634213,-1.25944,3748.21,10818.6)">
                        <path d="M1672.05,4850.56C1681.76,4912.5 1465.36,4912.35 1474.28,4850.56C1482.68,4792.28 1523.72,4633.77 1523.72,4633.77L1622.6,4633.77C1623.22,4636.14 1662.76,4791.32 1672.05,4850.56Z" style="fill:rgb(251,173,24);stroke:rgb(232,103,32);stroke-width:5.4px;"/>
                    </g>
                    <g transform="matrix(0.766132,0.0341709,-0.0253842,0.931199,536.852,293.845)">
                        <path d="M1849.61,4667.17C1879.25,4661.02 1909.94,4657.78 1941.39,4657.78C1961.13,4657.78 1980.58,4659.06 1999.66,4661.53" style="fill:rgb(251,173,24);stroke:rgb(232,103,32);stroke-width:27.55px;stroke-linecap:square;"/>
                    </g>
                </g>
                <g transform="matrix(-1.26433,-0.555802,0.448836,-1.04373,1939.34,11414.1)">
                    <g transform="matrix(-1.19879,-0.00603671,0.00634213,-1.25944,3748.21,10813.6)">
                        <path d="M1672.05,4850.56C1681.76,4912.5 1465.36,4912.35 1474.28,4850.56C1482.68,4792.28 1523.72,4633.77 1523.72,4633.77L1622.6,4633.77C1623.22,4636.14 1662.76,4791.32 1672.05,4850.56Z" style="fill:rgb(251,173,24);stroke:rgb(232,103,32);stroke-width:5.37px;"/>
                    </g>
                    <g transform="matrix(0.765825,0.0336526,-0.0338489,0.931242,576.408,290.138)">
                        <path d="M1849.61,4667.17C1879.25,4661.02 1909.94,4657.78 1941.39,4657.78C1961.13,4657.78 1980.58,4659.06 1999.66,4661.53" style="fill:rgb(251,173,24);stroke:rgb(232,103,32);stroke-width:27.55px;stroke-linecap:square;"/>
                    </g>
                </g>
                <g transform="matrix(-1.21826,0.650604,-0.535065,-1.00226,6881.98,8923.97)">
                    <g transform="matrix(-1.19879,-0.00603671,0.00634213,-1.25944,3748.21,10813.6)">
                        <path d="M1672.05,4850.56C1681.76,4912.5 1465.36,4912.35 1474.28,4850.56C1482.68,4792.28 1523.72,4633.77 1523.72,4633.77L1622.6,4633.77C1623.22,4636.14 1662.76,4791.32 1672.05,4850.56Z" style="fill:rgb(251,173,24);stroke:rgb(232,103,32);stroke-width:5.39px;"/>
                    </g>
                    <g transform="matrix(0.76582,0.0407126,-0.0333815,0.93093,574.512,279.47)">
                        <path d="M1849.61,4667.17C1879.25,4661.02 1909.94,4657.78 1941.39,4657.78C1961.13,4657.78 1980.58,4659.06 1999.66,4661.53" style="fill:rgb(251,173,24);stroke:rgb(232,103,32);stroke-width:27.55px;stroke-linecap:square;"/>
                    </g>
                </g>
            </g>
            <g transform="matrix(1.03099,-1.28741,1.28741,1.03099,-6087.57,1396.12)">
                <circle cx="1272.46" cy="5125.02" r="125.305" style="fill:rgb(232,103,32);"/>
            </g>
            <g transform="matrix(1,0,0,1,194.502,-7.13162)">
                <circle cx="1627.84" cy="5048.9" r="369.771" style="fill:none;stroke:rgb(232,103,32);stroke-width:41.67px;"/>
            </g>
            <g transform="matrix(0.680377,-0.849598,0.849598,0.680377,-3399.14,2635.91)">
                <circle cx="1272.46" cy="5125.02" r="125.305" style="fill:rgb(251,173,24);"/>
            </g>
        </g>
        <g transform="matrix(1.01605,-5.81792e-17,6.22153e-17,0.950139,2227.39,1221.82)">
            <g id="summer-emblem" serif:id="summer emblem">
                <g>
                    <g transform="matrix(-0.56715,-6.94558e-17,7.64498e-17,-0.62426,2817.56,9069.24)">
                        <path d="M1579.64,5882.62C1579.64,5882.62 1547.73,6022.94 1547.73,6067.17C1547.73,6084.28 1562.03,6098.17 1579.64,6098.17C1597.26,6098.17 1611.55,6084.28 1611.55,6067.17C1611.55,6022.94 1579.64,5882.62 1579.64,5882.62Z" style="fill:rgb(255,232,98);"/>
                        <path d="M1742.03,5847.76C1725.2,5773.75 1657.66,5721.05 1579.64,5721.05C1501.62,5721.05 1434.09,5773.75 1417.26,5847.76C1417.26,5847.76 1381.43,6014.66 1381.43,6067.17C1381.43,6173.45 1470.25,6259.74 1579.64,6259.74C1689.04,6259.74 1777.86,6173.45 1777.86,6067.17C1777.86,6014.66 1742.03,5847.76 1742.03,5847.76ZM1579.64,5882.62C1579.64,5882.62 1547.73,6022.94 1547.73,6067.17C1547.73,6084.28 1562.03,6098.17 1579.64,6098.17C1597.26,6098.17 1611.55,6084.28 1611.55,6067.17C1611.55,6022.94 1579.64,5882.62 1579.64,5882.62Z" style="fill:rgb(232,103,32);"/>
                    </g>
                    <g>
                        <g>
                            <g transform="matrix(-0.547825,0.146789,-0.16157,-0.602989,3676.86,8581)">
                                <path d="M1579.64,5882.62C1579.64,5882.62 1547.73,6024.47 1547.73,6069.18C1547.73,6085.18 1562.03,6098.17 1579.64,6098.17C1597.26,6098.17 1608.29,6081.41 1604.33,6065.82C1592.79,6020.43 1579.64,5882.62 1579.64,5882.62Z" style="fill:rgb(255,232,98);"/>
                                <path d="M1746.05,5862.59C1738.53,5783.82 1672.25,5724.03 1589.95,5721.79C1507.65,5719.56 1433.95,5775.54 1416.38,5853.63C1416.38,5853.63 1380.63,6021.68 1380.63,6074.58C1380.63,6173.87 1464.75,6259.06 1574.04,6259.06C1705.84,6259.06 1796.37,6139.34 1766.72,6022.67C1756.65,5983.04 1746.05,5862.59 1746.05,5862.59ZM1579.64,5882.62C1579.64,5882.62 1547.73,6024.47 1547.73,6069.18C1547.73,6085.18 1562.03,6098.17 1579.64,6098.17C1597.26,6098.17 1608.29,6081.41 1604.33,6065.82C1592.79,6020.43 1579.64,5882.62 1579.64,5882.62Z" style="fill:rgb(232,103,32);"/>
                            </g>
                            <g transform="matrix(-0.464582,0.325304,-0.358061,-0.511364,4621.92,7788.98)">
                                <path d="M1579.64,5882.62C1574.46,5881.06 1518.75,6015.76 1547.73,6069.18C1555.36,6083.24 1567.8,6104.07 1585.41,6104.07C1603.02,6104.07 1618.04,6083.81 1611.55,6069.18C1590.32,6021.25 1572.48,5881.54 1579.64,5882.62Z" style="fill:rgb(255,232,98);"/>
                                <path d="M1749.03,5888.06C1756.4,5818.39 1713.5,5753.55 1641.06,5731.78C1636.13,5730.3 1627.84,5728.21 1617.16,5726.64L1617.23,5726.44C1601.41,5724.04 1585.92,5723.52 1570.78,5724.98C1533.45,5727.86 1488.53,5742.13 1451.4,5785.08L1449.43,5787.3L1449.36,5787.39C1440.16,5797.61 1430.88,5810.55 1423.46,5826.69C1407.18,5859.72 1376.37,5940.05 1370.46,6009.92C1365.91,6063.59 1375.68,6112.16 1394.78,6147.36C1409.76,6174.97 1435.64,6208.74 1464.18,6228.4C1497.12,6251.09 1534.79,6262.27 1574.69,6262.27C1641.54,6262.27 1706.31,6228.97 1745.37,6176.63C1784.61,6124.05 1794.25,6057 1769.53,6001.22C1759.69,5979.01 1751.5,5910.59 1749.03,5888.06ZM1539.81,6038.6C1540.68,6050.26 1543.15,6060.73 1547.73,6069.18C1555.36,6083.24 1567.8,6104.07 1585.41,6104.07C1603.02,6104.07 1618.04,6083.81 1611.55,6069.18C1608,6061.16 1604.54,6050.57 1601.34,6038.49L1602.19,6038.36C1623.34,6034.65 1643.79,6026.95 1663.47,6015.09C1658.46,6018.02 1653.3,6020.72 1647.97,6023.09L1646.82,6023.71L1640.82,6026.34C1627.52,6032.1 1614.63,6036 1602.19,6038.36L1601.33,6038.49L1601.17,6037.91C1614.85,6035.57 1628.15,6031.64 1640.82,6026.34C1640.82,6026.34 1647.97,6023.09 1647.97,6023.09C1658.37,6017.82 1662.13,6014.49 1671.17,6006.16L1691.5,5986.27L1693.67,5982.64L1694.17,5981.77C1673.54,5957.69 1629.93,5945.87 1596.12,5945.87C1591.88,5945.87 1587.64,5946.04 1583.43,5946.4C1578.29,5910.64 1576.39,5882.13 1579.64,5882.62C1577.12,5881.86 1562.61,5913.42 1551.78,5952.18C1549.03,5952.94 1546.31,5953.8 1543.61,5954.73L1518.22,6033.46C1525.14,6035.54 1532.34,6037.31 1539.81,6038.6ZM1450.22,6128.67C1450.71,6130.1 1451.25,6131.52 1451.81,6132.93C1452.37,6134.35 1452.96,6135.75 1453.58,6137.14L1450.22,6128.67Z" style="fill:rgb(232,103,32);"/>
                            </g>
                            <g transform="matrix(-0.314746,0.471798,-0.519307,-0.34644,5315.97,6686.68)">
                                <path d="M1579.64,5882.62C1579.64,5882.62 1536.04,6019.67 1536.04,6064.38C1536.04,6080.39 1554.89,6100.91 1572.5,6100.91C1590.11,6100.91 1599.86,6080.39 1599.86,6064.38C1599.86,6019.67 1579.64,5882.62 1579.64,5882.62Z" style="fill:rgb(255,232,98);"/>
                                <path d="M1752.57,5853.39C1741.97,5781.48 1675.2,5729.21 1592.72,5728.24C1510.25,5727.28 1434.76,5777.89 1412,5849.4C1412,5849.4 1361.67,6018.81 1361.67,6073.93C1361.67,6118.99 1387.01,6174.72 1430.35,6209.68C1468.92,6240.8 1517.57,6255.31 1561.72,6255.31C1627.14,6255.31 1683.36,6229.43 1724.29,6183.31C1754.52,6149.24 1774.23,6098.75 1774.23,6054.83C1774.23,6005.3 1752.57,5853.39 1752.57,5853.39ZM1579.64,5882.62C1579.64,5882.62 1536.04,6019.67 1536.04,6064.38C1536.04,6080.39 1554.89,6100.91 1572.5,6100.91C1590.11,6100.91 1599.86,6080.39 1599.86,6064.38C1599.86,6019.67 1579.64,5882.62 1579.64,5882.62Z" style="fill:rgb(232,103,32);"/>
                            </g>
                            <g transform="matrix(-0.146789,0.547825,-0.602989,-0.16157,5481.1,5526.93)">
                                <path d="M1579.64,5882.62C1548.95,5983.46 1548.23,6023.68 1548.23,6068.39C1548.23,6084.39 1566.31,6114.08 1593.59,6107.44C1610.7,6103.27 1624.61,6089.89 1611.55,6069.18C1581.64,6021.74 1582.48,5873.31 1579.64,5882.62Z" style="fill:rgb(255,232,98);"/>
                                <path d="M1772.31,6000.85L1756.52,5863.21C1740.3,5732.81 1596.97,5729.94 1579.41,5730.49C1547.65,5731.47 1442.42,5737.08 1408.38,5848.95C1371.3,5970.79 1371.14,6019.45 1371.14,6073.48C1371.14,6114.66 1396.71,6177.92 1444.31,6215.03C1495.18,6254.68 1561.62,6271.64 1636.63,6253.38C1709.16,6235.72 1766.35,6188.07 1786.32,6126.44C1797.47,6092.04 1800.16,6049.25 1772.31,6000.85ZM1559.15,5959.62L1550.54,5961.5C1532.7,5965.84 1516.41,5972.92 1502.16,5982.19C1519.46,5995.34 1536.31,6007.74 1550.04,6017.09C1548.33,6035.8 1548.23,6051.78 1548.23,6068.39C1548.23,6084.39 1566.31,6114.08 1593.59,6107.44C1610.7,6103.27 1624.61,6089.89 1611.55,6069.18C1605.86,6060.15 1601.28,6047.47 1597.6,6032.91C1623.34,6030.78 1663.5,6023.55 1697.63,5996.84C1694.5,5993.4 1691.07,5990.2 1687.36,5987.31C1659.42,5965.53 1624.61,5954.23 1585.62,5956.32C1581.57,5913.7 1581.08,5877.9 1579.64,5882.62C1570.31,5913.29 1563.75,5938.35 1559.15,5959.62ZM1443.17,6119.35C1444.46,6123.46 1446.07,6127.64 1448.05,6131.88C1450.03,6136.12 1452.37,6140.43 1455.12,6144.8C1450.85,6138.03 1446.86,6129.35 1443.17,6119.35Z" style="fill:rgb(232,103,32);"/>
                            </g>
                        </g>
                        <g transform="matrix(-1,-1.22465e-16,-1.22465e-16,1,3843.34,6.06947)">
                            <g transform="matrix(-0.547825,0.146789,-0.16157,-0.602989,3676.86,8581)">
                                <path d="M1579.64,5882.62C1579.64,5882.62 1547.73,6024.47 1547.73,6069.18C1547.73,6085.18 1562.03,6098.17 1579.64,6098.17C1597.26,6098.17 1608.29,6081.41 1604.33,6065.82C1592.79,6020.43 1579.64,5882.62 1579.64,5882.62Z" style="fill:rgb(255,232,98);"/>
                                <path d="M1416.38,5853.63C1433.95,5775.54 1507.65,5719.56 1589.95,5721.79C1672.25,5724.03 1738.53,5783.82 1746.05,5862.59C1746.05,5862.59 1756.65,5983.04 1766.72,6022.67C1796.37,6139.34 1705.84,6259.06 1574.04,6259.06C1464.75,6259.06 1380.63,6173.87 1380.63,6074.58C1380.63,6021.68 1416.38,5853.63 1416.38,5853.63ZM1579.64,5882.62C1579.64,5882.62 1547.73,6024.47 1547.73,6069.18C1547.73,6085.18 1562.03,6098.17 1579.64,6098.17C1597.26,6098.17 1608.29,6081.41 1604.33,6065.82C1592.79,6020.43 1579.64,5882.62 1579.64,5882.62Z" style="fill:rgb(232,103,32);"/>
                            </g>
                            <g transform="matrix(-0.464582,0.325304,-0.358061,-0.511364,4621.92,7788.98)">
                                <path d="M1579.64,5882.62C1574.46,5881.06 1518.75,6015.76 1547.73,6069.18C1555.36,6083.24 1567.8,6104.07 1585.41,6104.07C1603.02,6104.07 1618.04,6083.81 1611.55,6069.18C1590.32,6021.25 1572.48,5881.54 1579.64,5882.62Z" style="fill:rgb(255,232,98);"/>
                                <path d="M1419.8,5835.17C1434.58,5797.48 1459.76,5775.5 1475,5764.01C1539.52,5713.67 1599.69,5719.35 1641.06,5731.78C1713.5,5753.55 1756.4,5818.39 1749.03,5888.06C1751.5,5910.59 1759.69,5979.01 1769.53,6001.22C1794.25,6057 1784.61,6124.05 1745.37,6176.63C1706.31,6228.97 1641.54,6262.27 1574.69,6262.27C1534.79,6262.27 1497.12,6251.09 1464.18,6228.4C1435.64,6208.74 1409.76,6174.97 1394.78,6147.36C1378.61,6117.56 1368.89,6079.06 1369.24,6035.57C1369.69,5979.57 1388.38,5910.85 1405.13,5867.31C1409.63,5855.62 1414.62,5844.9 1419.8,5835.17ZM1601.34,6038.5C1604.55,6050.59 1608,6061.16 1611.55,6069.18C1618.04,6083.81 1603.02,6104.07 1585.41,6104.07C1567.8,6104.07 1555.36,6083.24 1547.73,6069.18C1543.15,6060.74 1540.69,6050.27 1539.81,6038.63C1532.35,6037.31 1525.15,6035.54 1518.22,6033.46L1543.61,5954.73C1546.31,5953.8 1549.03,5952.94 1551.78,5952.18C1562.61,5913.42 1577.12,5881.86 1579.64,5882.62C1576.39,5882.13 1578.29,5910.64 1583.43,5946.4C1587.64,5946.04 1591.88,5945.87 1596.12,5945.87C1630.41,5945.87 1674.79,5958.03 1695.03,5982.81L1671.17,6006.16C1664.76,6012.07 1665.22,6011.9 1658.8,6017.29L1656.73,6018.73L1656.6,6018.81L1648.07,6023.08L1644.39,6024.77L1641.05,6026.24L1640.23,6026.58L1636.13,6028.24C1624.88,6032.59 1613.18,6035.88 1601.19,6037.97L1601.25,6038.19C1613.06,6036.12 1624.64,6032.81 1636,6028.3L1636.13,6028.24L1636.75,6028.02L1640.23,6026.58L1640.82,6026.34L1636.81,6028L1636.75,6028.02L1636,6028.3C1624.1,6033.1 1612.53,6036.43 1601.34,6038.5ZM1684.06,6001.19C1689.26,5997.14 1694.24,5992.82 1698.93,5988.22L1698.97,5988.28C1694.09,5993.05 1689.1,5997.34 1684.06,6001.19ZM1674.92,6007.82L1676.13,6006.99L1675.52,6007.44L1674.92,6007.82ZM1450.22,6128.67L1453.58,6137.14C1452.34,6134.36 1451.21,6131.53 1450.22,6128.67Z" style="fill:rgb(232,103,32);"/>
                            </g>
                            <g transform="matrix(-0.314746,0.471798,-0.519307,-0.34644,5315.97,6686.68)">
                                <path d="M1579.64,5882.62C1579.64,5882.62 1536.04,6019.67 1536.04,6064.38C1536.04,6080.39 1554.89,6100.91 1572.5,6100.91C1590.11,6100.91 1599.86,6080.39 1599.86,6064.38C1599.86,6019.67 1579.64,5882.62 1579.64,5882.62Z" style="fill:rgb(255,232,98);"/>
                                <path d="M1412,5849.4C1434.76,5777.89 1510.25,5727.28 1592.72,5728.24C1675.2,5729.21 1741.97,5781.48 1752.57,5853.39C1752.57,5853.39 1774.23,6005.3 1774.23,6054.83C1774.23,6098.75 1754.52,6149.24 1724.29,6183.31C1683.36,6229.43 1627.14,6255.31 1561.72,6255.31C1517.57,6255.31 1468.92,6240.8 1430.35,6209.68C1387.01,6174.72 1361.67,6118.99 1361.67,6073.93C1361.67,6018.81 1412,5849.4 1412,5849.4ZM1579.64,5882.62C1579.64,5882.62 1536.04,6019.67 1536.04,6064.38C1536.04,6080.39 1554.89,6100.91 1572.5,6100.91C1590.11,6100.91 1599.86,6080.39 1599.86,6064.38C1599.86,6019.67 1579.64,5882.62 1579.64,5882.62Z" style="fill:rgb(232,103,32);"/>
                            </g>
                            <g transform="matrix(-0.146789,0.547825,-0.602989,-0.16157,5481.1,5526.93)">
                                <path d="M1579.64,5882.62C1548.95,5983.46 1548.23,6023.68 1548.23,6068.39C1548.23,6084.39 1566.31,6114.08 1593.59,6107.44C1610.7,6103.27 1624.61,6089.89 1611.55,6069.18C1581.64,6021.74 1582.48,5873.31 1579.64,5882.62Z" style="fill:rgb(255,232,98);"/>
                                <path d="M1772.31,6000.85C1800.16,6049.25 1797.47,6092.04 1786.32,6126.44C1766.35,6188.07 1709.16,6235.72 1636.63,6253.38C1561.62,6271.64 1495.18,6254.68 1444.31,6215.03C1396.71,6177.92 1371.14,6114.66 1371.14,6073.48C1371.14,6019.45 1371.3,5970.79 1408.38,5848.95L1408.38,5848.95C1442.42,5737.08 1547.65,5731.47 1579.41,5730.49C1596.97,5729.94 1740.3,5732.81 1756.52,5863.21L1772.31,6000.85ZM1550.04,6017.09C1536.31,6007.74 1519.46,5995.34 1502.16,5982.19C1516.41,5972.92 1532.7,5965.84 1550.54,5961.5L1559.15,5959.62C1563.75,5938.35 1570.31,5913.29 1579.64,5882.62C1581.08,5877.9 1581.57,5913.7 1585.62,5956.32C1624.61,5954.23 1659.42,5965.53 1687.36,5987.31C1691.07,5990.2 1694.5,5993.4 1697.63,5996.84C1663.51,6023.55 1623.34,6030.78 1597.6,6032.91C1601.28,6047.47 1605.86,6060.15 1611.55,6069.18C1624.61,6089.89 1610.7,6103.27 1593.59,6107.44C1566.31,6114.08 1548.23,6084.39 1548.23,6068.39C1548.23,6051.78 1548.33,6035.8 1550.04,6017.09ZM1443.17,6119.35C1445.02,6124.35 1446.94,6129.02 1448.93,6133.28C1450.92,6137.55 1452.99,6141.41 1455.12,6144.8C1449.61,6136.07 1445.75,6127.57 1443.17,6119.35Z" style="fill:rgb(232,103,32);"/>
                            </g>
                        </g>
                    </g>
                    <g transform="matrix(1,1.22465e-16,1.22465e-16,-1,-0.00951429,10947.5)">
                        <g>
                            <g transform="matrix(-0.547825,0.146789,-0.16157,-0.602989,3676.86,8581)">
                                <path d="M1579.64,5882.62C1579.64,5882.62 1547.73,6024.47 1547.73,6069.18C1547.73,6085.18 1562.03,6098.17 1579.64,6098.17C1597.26,6098.17 1608.29,6081.41 1604.33,6065.82C1592.79,6020.43 1579.64,5882.62 1579.64,5882.62Z" style="fill:rgb(255,232,98);"/>
                                <path d="M1416.38,5853.63C1433.95,5775.54 1507.65,5719.56 1589.95,5721.79C1672.25,5724.03 1738.53,5783.82 1746.05,5862.59C1746.05,5862.59 1756.65,5983.04 1766.72,6022.67C1796.37,6139.34 1705.84,6259.06 1574.04,6259.06C1464.75,6259.06 1380.63,6173.87 1380.63,6074.58C1380.63,6021.68 1416.38,5853.63 1416.38,5853.63ZM1579.64,5882.62C1579.64,5882.62 1547.73,6024.47 1547.73,6069.18C1547.73,6085.18 1562.03,6098.17 1579.64,6098.17C1597.26,6098.17 1608.29,6081.41 1604.33,6065.82C1592.79,6020.43 1579.64,5882.62 1579.64,5882.62Z" style="fill:rgb(232,103,32);"/>
                            </g>
                            <g transform="matrix(-0.464582,0.325304,-0.358061,-0.511364,4621.92,7788.98)">
                                <path d="M1579.64,5882.62C1574.46,5881.06 1518.75,6015.76 1547.73,6069.18C1555.36,6083.24 1567.8,6104.07 1585.41,6104.07C1603.02,6104.07 1618.04,6083.81 1611.55,6069.18C1590.32,6021.25 1572.48,5881.54 1579.64,5882.62Z" style="fill:rgb(255,232,98);"/>
                                <path d="M1749.03,5888.06C1751.5,5910.59 1759.69,5979.01 1769.53,6001.22C1794.25,6057 1784.61,6124.05 1745.37,6176.63C1706.31,6228.97 1641.54,6262.27 1574.69,6262.27C1534.79,6262.27 1497.12,6251.09 1464.18,6228.4C1435.64,6208.74 1409.76,6174.97 1394.78,6147.36C1378.61,6117.56 1368.89,6079.06 1369.24,6035.57C1369.69,5979.57 1388.38,5910.85 1405.13,5867.31C1409.63,5855.62 1414.62,5844.9 1419.8,5835.17C1434.58,5797.48 1459.76,5775.5 1475,5764.01C1539.52,5713.67 1599.69,5719.35 1641.06,5731.78C1713.5,5753.55 1756.4,5818.39 1749.03,5888.06ZM1450.22,6128.67L1453.58,6137.14C1452.34,6134.36 1451.21,6131.53 1450.22,6128.67ZM1551.78,5952.18C1562.61,5913.42 1577.12,5881.86 1579.64,5882.62C1576.39,5882.13 1578.29,5910.64 1583.43,5946.4C1587.64,5946.04 1591.88,5945.87 1596.12,5945.87C1630.41,5945.87 1674.79,5958.03 1695.03,5982.81L1671.17,6006.16C1664.76,6012.07 1665.22,6011.9 1658.8,6017.29L1656.73,6018.73L1656.6,6018.81L1648.07,6023.08L1644.39,6024.77L1641.05,6026.24L1640.23,6026.58L1636.13,6028.24C1624.88,6032.59 1613.18,6035.88 1601.19,6037.97L1601.25,6038.19C1613.06,6036.12 1624.64,6032.81 1636,6028.3L1636.13,6028.24L1636.75,6028.02L1640.23,6026.58L1640.82,6026.34L1636.81,6028L1636.75,6028.02L1636,6028.3C1624.1,6033.1 1612.53,6036.43 1601.34,6038.5C1604.55,6050.59 1608,6061.16 1611.55,6069.18C1618.04,6083.81 1603.02,6104.07 1585.41,6104.07C1567.8,6104.07 1555.36,6083.24 1547.73,6069.18C1543.15,6060.74 1540.69,6050.27 1539.81,6038.63C1532.35,6037.31 1525.15,6035.54 1518.22,6033.46L1543.61,5954.73C1546.31,5953.8 1549.03,5952.94 1551.78,5952.18ZM1675.52,6007.44L1674.92,6007.82L1676.13,6006.99L1675.52,6007.44ZM1698.93,5988.22L1698.97,5988.28C1694.09,5993.05 1689.1,5997.34 1684.06,6001.19C1689.26,5997.14 1694.24,5992.82 1698.93,5988.22Z" style="fill:rgb(232,103,32);"/>
                            </g>
                            <g transform="matrix(-0.314746,0.471798,-0.519307,-0.34644,5315.97,6686.68)">
                                <path d="M1579.64,5882.62C1579.64,5882.62 1536.04,6019.67 1536.04,6064.38C1536.04,6080.39 1554.89,6100.91 1572.5,6100.91C1590.11,6100.91 1599.86,6080.39 1599.86,6064.38C1599.86,6019.67 1579.64,5882.62 1579.64,5882.62Z" style="fill:rgb(255,232,98);"/>
                                <path d="M1412,5849.4C1434.76,5777.89 1510.25,5727.28 1592.72,5728.24C1675.2,5729.21 1741.97,5781.48 1752.57,5853.39C1752.57,5853.39 1774.23,6005.3 1774.23,6054.83C1774.23,6098.75 1754.52,6149.24 1724.29,6183.31C1683.36,6229.43 1627.14,6255.31 1561.72,6255.31C1517.57,6255.31 1468.92,6240.8 1430.35,6209.68C1387.01,6174.72 1361.67,6118.99 1361.67,6073.93C1361.67,6018.81 1412,5849.4 1412,5849.4ZM1579.64,5882.62C1579.64,5882.62 1536.04,6019.67 1536.04,6064.38C1536.04,6080.39 1554.89,6100.91 1572.5,6100.91C1590.11,6100.91 1599.86,6080.39 1599.86,6064.38C1599.86,6019.67 1579.64,5882.62 1579.64,5882.62Z" style="fill:rgb(232,103,32);"/>
                            </g>
                            <g transform="matrix(-0.146789,0.547825,-0.602989,-0.16157,5481.1,5526.93)">
                                <path d="M1579.64,5882.62C1548.95,5983.46 1548.23,6023.68 1548.23,6068.39C1548.23,6084.39 1566.31,6114.08 1593.59,6107.44C1610.7,6103.27 1624.61,6089.89 1611.55,6069.18C1581.64,6021.74 1582.48,5873.31 1579.64,5882.62Z" style="fill:rgb(255,232,98);"/>
                                <path d="M1772.31,6000.85C1800.16,6049.25 1797.47,6092.04 1786.32,6126.44C1766.35,6188.07 1709.16,6235.72 1636.63,6253.38C1561.62,6271.64 1495.18,6254.68 1444.31,6215.03C1396.71,6177.92 1371.14,6114.66 1371.14,6073.48C1371.14,6019.45 1371.3,5970.79 1408.38,5848.95C1442.42,5737.08 1547.65,5731.47 1579.41,5730.49C1596.97,5729.94 1740.3,5732.81 1756.52,5863.21L1772.31,6000.85ZM1443.17,6119.35C1445.02,6124.35 1446.94,6129.02 1448.93,6133.28C1450.92,6137.55 1452.99,6141.41 1455.12,6144.8C1449.61,6136.07 1445.75,6127.57 1443.17,6119.35ZM1585.62,5956.32C1624.61,5954.23 1659.42,5965.53 1687.36,5987.31C1691.07,5990.2 1694.5,5993.4 1697.63,5996.84C1663.5,6023.55 1623.34,6030.78 1597.6,6032.91C1601.28,6047.47 1605.86,6060.15 1611.55,6069.18C1624.61,6089.89 1610.7,6103.27 1593.59,6107.44C1566.31,6114.08 1548.23,6084.39 1548.23,6068.39C1548.23,6051.78 1548.33,6035.8 1550.04,6017.09C1536.31,6007.74 1519.46,5995.34 1502.16,5982.19C1516.41,5972.92 1532.7,5965.84 1550.54,5961.5L1559.15,5959.62C1563.75,5938.35 1570.31,5913.29 1579.64,5882.62C1581.08,5877.9 1581.57,5913.7 1585.62,5956.32Z" style="fill:rgb(232,103,32);"/>
                            </g>
                        </g>
                        <g transform="matrix(-1,-1.22465e-16,-1.22465e-16,1,3843.34,6.06947)">
                            <g transform="matrix(-0.547825,0.146789,-0.16157,-0.602989,3676.86,8581)">
                                <path d="M1579.64,5882.62C1579.64,5882.62 1547.73,6024.47 1547.73,6069.18C1547.73,6085.18 1562.03,6098.17 1579.64,6098.17C1597.26,6098.17 1608.29,6081.41 1604.33,6065.82C1592.79,6020.43 1579.64,5882.62 1579.64,5882.62Z" style="fill:rgb(255,232,98);"/>
                                <path d="M1746.05,5862.59C1738.53,5783.82 1672.25,5724.03 1589.95,5721.79C1507.65,5719.56 1433.95,5775.54 1416.38,5853.63C1416.38,5853.63 1380.63,6021.68 1380.63,6074.58C1380.63,6173.87 1464.75,6259.06 1574.04,6259.06C1705.84,6259.06 1796.37,6139.34 1766.72,6022.67C1756.65,5983.04 1746.05,5862.59 1746.05,5862.59ZM1579.64,5882.62C1579.64,5882.62 1547.73,6024.47 1547.73,6069.18C1547.73,6085.18 1562.03,6098.17 1579.64,6098.17C1597.26,6098.17 1608.29,6081.41 1604.33,6065.82C1592.79,6020.43 1579.64,5882.62 1579.64,5882.62Z" style="fill:rgb(232,103,32);"/>
                            </g>
                            <g transform="matrix(-0.464582,0.325304,-0.358061,-0.511364,4621.92,7788.98)">
                                <path d="M1579.64,5882.62C1574.46,5881.06 1518.75,6015.76 1547.73,6069.18C1555.36,6083.24 1567.8,6104.07 1585.41,6104.07C1603.02,6104.07 1618.04,6083.81 1611.55,6069.18C1590.32,6021.25 1572.48,5881.54 1579.64,5882.62Z" style="fill:rgb(255,232,98);"/>
                                <path d="M1617.16,5726.64L1617.23,5726.44C1601.41,5724.04 1585.92,5723.52 1570.78,5724.98C1533.45,5727.86 1488.53,5742.13 1451.4,5785.08L1449.43,5787.3L1449.36,5787.39C1440.16,5797.61 1430.88,5810.55 1423.46,5826.69C1407.18,5859.72 1376.37,5940.05 1370.46,6009.92C1365.91,6063.59 1375.68,6112.16 1394.78,6147.36C1409.76,6174.97 1435.64,6208.74 1464.18,6228.4C1497.12,6251.09 1534.79,6262.27 1574.69,6262.27C1641.54,6262.27 1706.31,6228.97 1745.37,6176.63C1784.61,6124.05 1794.25,6057 1769.53,6001.22C1759.69,5979.01 1751.5,5910.59 1749.03,5888.06C1756.4,5818.39 1713.5,5753.55 1641.06,5731.78C1636.13,5730.3 1627.84,5728.21 1617.16,5726.64ZM1450.22,6128.67C1450.71,6130.1 1451.25,6131.52 1451.81,6132.93C1452.37,6134.35 1452.96,6135.75 1453.58,6137.14L1450.22,6128.67ZM1583.43,5946.4C1578.29,5910.64 1576.39,5882.13 1579.64,5882.62C1577.12,5881.86 1562.61,5913.42 1551.78,5952.18C1549.03,5952.94 1546.31,5953.8 1543.61,5954.73L1518.22,6033.46C1525.14,6035.54 1532.34,6037.31 1539.81,6038.6C1540.68,6050.26 1543.15,6060.73 1547.73,6069.18C1555.36,6083.24 1567.8,6104.07 1585.41,6104.07C1603.02,6104.07 1618.04,6083.81 1611.55,6069.18C1608,6061.16 1604.54,6050.57 1601.34,6038.49L1602.19,6038.36C1623.34,6034.65 1643.79,6026.95 1663.47,6015.09C1658.46,6018.02 1653.3,6020.72 1647.97,6023.09L1646.82,6023.71L1640.82,6026.34C1627.52,6032.1 1614.63,6036 1602.19,6038.36L1601.33,6038.49L1601.17,6037.91C1614.85,6035.57 1628.15,6031.64 1640.82,6026.34L1647.97,6023.09C1658.37,6017.82 1662.13,6014.49 1671.17,6006.16L1691.5,5986.27L1693.67,5982.64L1694.17,5981.77C1673.54,5957.69 1629.93,5945.87 1596.12,5945.87C1591.88,5945.87 1587.64,5946.04 1583.43,5946.4Z" style="fill:rgb(232,103,32);"/>
                            </g>
                            <g transform="matrix(-0.314746,0.471798,-0.519307,-0.34644,5315.97,6686.68)">
                                <path d="M1579.64,5882.62C1579.64,5882.62 1536.04,6019.67 1536.04,6064.38C1536.04,6080.39 1554.89,6100.91 1572.5,6100.91C1590.11,6100.91 1599.86,6080.39 1599.86,6064.38C1599.86,6019.67 1579.64,5882.62 1579.64,5882.62Z" style="fill:rgb(255,232,98);"/>
                                <path d="M1752.57,5853.39C1741.97,5781.48 1675.2,5729.21 1592.72,5728.24C1510.25,5727.28 1434.76,5777.89 1412,5849.4C1412,5849.4 1361.67,6018.81 1361.67,6073.93C1361.67,6118.99 1387.01,6174.72 1430.35,6209.68C1468.92,6240.8 1517.57,6255.31 1561.72,6255.31C1627.14,6255.31 1683.36,6229.43 1724.29,6183.31C1754.52,6149.24 1774.23,6098.75 1774.23,6054.83C1774.23,6005.3 1752.57,5853.39 1752.57,5853.39ZM1579.64,5882.62C1579.64,5882.62 1536.04,6019.67 1536.04,6064.38C1536.04,6080.39 1554.89,6100.91 1572.5,6100.91C1590.11,6100.91 1599.86,6080.39 1599.86,6064.38C1599.86,6019.67 1579.64,5882.62 1579.64,5882.62Z" style="fill:rgb(232,103,32);"/>
                            </g>
                            <g transform="matrix(-0.146789,0.547825,-0.602989,-0.16157,5481.1,5526.93)">
                                <path d="M1579.64,5882.62C1548.95,5983.46 1548.23,6023.68 1548.23,6068.39C1548.23,6084.39 1566.31,6114.08 1593.59,6107.44C1610.7,6103.27 1624.61,6089.89 1611.55,6069.18C1581.64,6021.74 1582.48,5873.31 1579.64,5882.62Z" style="fill:rgb(255,232,98);"/>
                                <path d="M1772.31,6000.85L1756.52,5863.21C1740.3,5732.81 1596.97,5729.94 1579.41,5730.49C1547.65,5731.47 1442.42,5737.08 1408.38,5848.95C1371.3,5970.79 1371.14,6019.45 1371.14,6073.48C1371.14,6114.66 1396.71,6177.92 1444.31,6215.03C1495.18,6254.68 1561.62,6271.64 1636.63,6253.38C1709.16,6235.72 1766.35,6188.07 1786.32,6126.44C1797.47,6092.04 1800.16,6049.25 1772.31,6000.85ZM1443.17,6119.35C1444.46,6123.46 1446.07,6127.64 1448.05,6131.88C1450.03,6136.12 1452.37,6140.43 1455.12,6144.8C1450.85,6138.03 1446.86,6129.35 1443.17,6119.35ZM1597.6,6032.91C1623.34,6030.78 1663.51,6023.55 1697.63,5996.84C1694.5,5993.4 1691.07,5990.2 1687.36,5987.31C1659.42,5965.53 1624.61,5954.23 1585.62,5956.32C1581.57,5913.7 1581.08,5877.9 1579.64,5882.62C1570.31,5913.29 1563.75,5938.35 1559.15,5959.62L1550.54,5961.5C1532.7,5965.84 1516.41,5972.92 1502.16,5982.19C1519.46,5995.34 1536.31,6007.74 1550.04,6017.09C1548.33,6035.8 1548.23,6051.78 1548.23,6068.39C1548.23,6084.39 1566.31,6114.08 1593.59,6107.44C1610.7,6103.27 1624.61,6089.89 1611.55,6069.18C1605.86,6060.15 1601.28,6047.47 1597.6,6032.91Z" style="fill:rgb(232,103,32);"/>
                            </g>
                        </g>
                    </g>
                    <g transform="matrix(0.401035,-0.401035,-0.441419,-0.441419,3846.25,8666.31)">
                        <path d="M1579.64,5882.62C1579.64,5882.62 1572.98,5953.41 1547.73,6069.18C1543.69,6087.72 1562.03,6098.17 1579.64,6098.17C1597.26,6098.17 1611.55,6085.18 1611.55,6069.18L1579.64,5882.62Z" style="fill:rgb(255,232,98);"/>
                        <path d="M1408.09,5858.99C1415.45,5780.76 1486.49,5723.78 1573.55,5726.28C1660.61,5728.78 1736.25,5789.98 1749.74,5868.81L1781.65,6055.37C1783.03,6063.45 1783.72,6071.57 1783.72,6079.65C1783.72,6176.2 1697.44,6254.59 1591.17,6254.59C1524.12,6254.59 1458.52,6223.69 1419.82,6179.18C1386.13,6140.45 1365.35,6090.44 1378.75,6029.01C1401.77,5923.47 1408.09,5858.99 1408.09,5858.99ZM1579.64,5882.62C1579.64,5882.62 1572.98,5953.41 1547.73,6069.18C1543.69,6087.72 1562.03,6098.17 1579.64,6098.17C1597.26,6098.17 1611.55,6085.18 1611.55,6069.18L1579.64,5882.62Z" style="fill:rgb(232,103,32);"/>
                    </g>
                    <g transform="matrix(0.401035,0.401035,-0.441419,0.441419,3846.22,2283.4)">
                        <path d="M1579.64,5882.62C1579.64,5882.62 1572.98,5953.41 1547.73,6069.18C1543.69,6087.72 1562.03,6098.17 1579.64,6098.17C1597.26,6098.17 1611.55,6085.18 1611.55,6069.18L1579.64,5882.62Z" style="fill:rgb(255,232,98);"/>
                        <path d="M1749.74,5868.81C1736.25,5789.98 1660.61,5728.78 1573.55,5726.28C1486.49,5723.78 1415.45,5780.76 1408.09,5858.99C1408.09,5858.99 1401.77,5923.47 1378.75,6029.01C1365.35,6090.44 1386.13,6140.45 1419.82,6179.18C1458.52,6223.69 1524.12,6254.59 1591.17,6254.59C1697.44,6254.59 1783.72,6176.2 1783.72,6079.65C1783.72,6071.57 1783.03,6063.45 1781.65,6055.37L1749.74,5868.81ZM1579.64,5882.62C1579.64,5882.62 1572.98,5953.41 1547.73,6069.18C1543.69,6087.72 1562.03,6098.17 1579.64,6098.17C1597.26,6098.17 1611.55,6085.18 1611.55,6069.18L1579.64,5882.62Z" style="fill:rgb(232,103,32);"/>
                    </g>
                    <g transform="matrix(-0.401035,-0.401035,0.441419,-0.441419,-2.8621,8666.24)">
                        <path d="M1579.64,5882.62C1579.64,5882.62 1572.98,5953.41 1547.73,6069.18C1543.69,6087.72 1562.03,6098.17 1579.64,6098.17C1597.26,6098.17 1611.55,6085.18 1611.55,6069.18L1579.64,5882.62Z" style="fill:rgb(255,232,98);"/>
                        <path d="M1749.74,5868.81C1736.25,5789.98 1660.61,5728.78 1573.55,5726.28C1486.49,5723.78 1415.45,5780.76 1408.09,5858.99C1408.09,5858.99 1401.77,5923.47 1378.75,6029.01C1365.35,6090.44 1386.13,6140.45 1419.82,6179.18C1458.52,6223.69 1524.12,6254.59 1591.17,6254.59C1697.44,6254.59 1783.72,6176.2 1783.72,6079.65C1783.72,6071.57 1783.03,6063.45 1781.65,6055.37L1749.74,5868.81ZM1579.64,5882.62C1579.64,5882.62 1572.98,5953.41 1547.73,6069.18C1543.69,6087.72 1562.03,6098.17 1579.64,6098.17C1597.26,6098.17 1611.55,6085.18 1611.55,6069.18L1579.64,5882.62Z" style="fill:rgb(232,103,32);"/>
                    </g>
                    <g transform="matrix(-0.401035,0.401035,0.441419,0.441419,-2.8971,2283.47)">
                        <path d="M1579.64,5882.62C1579.64,5882.62 1572.98,5953.41 1547.73,6069.18C1543.69,6087.72 1562.03,6098.17 1579.64,6098.17C1597.26,6098.17 1611.55,6085.18 1611.55,6069.18L1579.64,5882.62Z" style="fill:rgb(255,232,98);"/>
                        <path d="M1408.09,5858.99C1415.45,5780.76 1486.49,5723.78 1573.55,5726.28C1660.61,5728.78 1736.25,5789.98 1749.74,5868.81L1781.65,6055.37C1783.03,6063.45 1783.72,6071.57 1783.72,6079.65C1783.72,6176.2 1697.44,6254.59 1591.17,6254.59C1524.12,6254.59 1458.52,6223.69 1419.82,6179.18C1386.13,6140.45 1365.35,6090.44 1378.75,6029.01C1401.77,5923.47 1408.09,5858.99 1408.09,5858.99ZM1579.64,5882.62C1579.64,5882.62 1572.98,5953.41 1547.73,6069.18C1543.69,6087.72 1562.03,6098.17 1579.64,6098.17C1597.26,6098.17 1611.55,6085.18 1611.55,6069.18L1579.64,5882.62Z" style="fill:rgb(232,103,32);"/>
                    </g>
                    <g transform="matrix(-1.04184e-16,0.56715,-0.62426,-1.14675e-16,5539.05,4578.84)">
                        <path d="M1579.64,5882.62C1571.06,5882.27 1522.66,6029.52 1550,6075.36C1558.2,6089.1 1569.4,6098.17 1587.01,6098.17C1604.62,6098.17 1616.54,6084.53 1611.55,6069.18C1587.01,5993.57 1579.64,5882.62 1579.64,5882.62Z" style="fill:rgb(255,232,98);"/>
                        <path d="M1757.2,5874.11C1752.08,5796.91 1679.18,5735.46 1588.28,5731.71C1559.65,5730.53 1467.64,5731.21 1416.3,5820.2C1402.34,5844.4 1369.21,5938.16 1364.55,6012.97C1361.2,6066.84 1373.5,6113.7 1391.36,6143.65C1432.91,6213.31 1497.73,6249.26 1587.01,6249.26C1723.18,6249.26 1821.51,6147.67 1783,6029.01C1762.63,5966.27 1757.2,5874.11 1757.2,5874.11ZM1543.07,6009.98C1540.3,6036.63 1541.42,6060.98 1550,6075.36C1558.2,6089.1 1569.4,6098.17 1587.01,6098.17C1604.62,6098.17 1616.54,6084.53 1611.55,6069.18C1607.81,6057.63 1604.46,6045.26 1601.53,6032.59C1624.53,6030.38 1649.13,6023.93 1674.24,6010.41C1677.41,6008.71 1686.36,6000.39 1696.61,5990.32C1670.99,5960.06 1633.36,5947.08 1587.01,5947.08L1586.34,5947.1C1581.47,5910.14 1579.64,5882.62 1579.64,5882.62C1575.76,5882.46 1563.7,5912.59 1554.25,5949.87C1532.76,5953.41 1513.12,5960.55 1496.22,5970.49L1543.07,6009.98Z" style="fill:rgb(232,103,32);"/>
                    </g>
                    <g transform="matrix(1.04184e-16,0.56715,0.62426,-1.14675e-16,-1695.49,4580.22)">
                        <path d="M1579.64,5882.62C1571.06,5882.27 1522.66,6029.52 1550,6075.36C1558.2,6089.1 1569.4,6098.17 1587.01,6098.17C1604.62,6098.17 1616.54,6084.53 1611.55,6069.18C1587.01,5993.57 1579.64,5882.62 1579.64,5882.62Z" style="fill:rgb(255,232,98);"/>
                        <path d="M1588.28,5731.71C1679.18,5735.46 1752.08,5796.91 1757.2,5874.11C1757.2,5874.11 1762.63,5966.27 1783,6029.01C1821.51,6147.67 1723.18,6249.26 1587.01,6249.26C1497.73,6249.26 1432.91,6213.31 1391.36,6143.65C1373.5,6113.7 1361.2,6066.84 1364.55,6012.97C1369.21,5938.16 1402.34,5844.4 1416.3,5820.2C1467.64,5731.21 1559.65,5730.53 1588.28,5731.71ZM1543.07,6009.98L1496.22,5970.49C1513.12,5960.55 1532.76,5953.41 1554.25,5949.87C1563.7,5912.59 1575.76,5882.46 1579.64,5882.62C1579.64,5882.62 1581.47,5910.14 1586.34,5947.1L1587.01,5947.08C1633.36,5947.08 1670.99,5960.06 1696.61,5990.32C1686.36,6000.39 1677.41,6008.71 1674.24,6010.41C1649.13,6023.93 1624.53,6030.38 1601.53,6032.59C1604.46,6045.26 1607.81,6057.63 1611.55,6069.18C1616.54,6084.53 1604.62,6098.17 1587.01,6098.17C1569.4,6098.17 1558.2,6089.1 1550,6075.36C1541.42,6060.98 1540.3,6036.63 1543.07,6009.98Z" style="fill:rgb(232,103,32);"/>
                    </g>
                    <g transform="matrix(0.56715,6.94558e-17,-7.64498e-17,0.62426,1025.77,1880.56)">
                        <path d="M1579.64,5882.62C1579.64,5882.62 1547.73,6022.94 1547.73,6067.17C1547.73,6084.28 1562.03,6098.17 1579.64,6098.17C1597.26,6098.17 1611.55,6084.28 1611.55,6067.17C1611.55,6022.94 1579.64,5882.62 1579.64,5882.62Z" style="fill:rgb(255,232,98);"/>
                        <path d="M1742.03,5847.76C1725.2,5773.75 1657.66,5721.05 1579.64,5721.05C1501.62,5721.05 1434.09,5773.75 1417.26,5847.76C1417.26,5847.76 1381.43,6014.66 1381.43,6067.17C1381.43,6173.45 1470.25,6259.74 1579.64,6259.74C1689.04,6259.74 1777.86,6173.45 1777.86,6067.17C1777.86,6014.66 1742.03,5847.76 1742.03,5847.76ZM1579.64,5882.62C1579.64,5882.62 1547.73,6022.94 1547.73,6067.17C1547.73,6084.28 1562.03,6098.17 1579.64,6098.17C1597.26,6098.17 1611.55,6084.28 1611.55,6067.17C1611.55,6022.94 1579.64,5882.62 1579.64,5882.62Z" style="fill:rgb(232,103,32);"/>
                    </g>
                    <g transform="matrix(0.401066,2.45582e-17,3.19734e-18,0.401066,1144.46,3270.4)">
                        <circle cx="1937.84" cy="5496.18" r="47.301" style="fill:rgb(255,232,98);"/>
                        <path d="M1937.84,5197.39C1777.68,5197.39 1655.37,5336.02 1655.37,5496.18C1655.37,5656.34 1777.68,5794.97 1937.84,5794.97C2098.01,5794.97 2220.32,5656.34 2220.32,5496.18C2220.32,5336.02 2098.01,5197.39 1937.84,5197.39ZM1937.84,5700.36C1829.86,5700.36 1749.97,5604.16 1749.97,5496.18C1749.97,5388.2 1829.86,5291.99 1937.84,5291.99C2045.83,5291.99 2125.71,5388.2 2125.71,5496.18C2125.71,5604.16 2045.83,5700.36 1937.84,5700.36Z" style="fill:rgb(232,103,32);"/>
                    </g>
                </g>
            </g>
        </g>
        <g transform="matrix(1.01605,-5.81792e-17,6.22153e-17,0.950139,2227.39,1221.82)">
            <g id="summer-emblem1" serif:id="summer emblem">
                <g>
                    <g transform="matrix(-0.56715,-6.94558e-17,7.64498e-17,-0.62426,2817.56,9069.24)">
                        <path d="M1579.64,5882.62C1579.64,5882.62 1547.73,6022.94 1547.73,6067.17C1547.73,6084.28 1562.03,6098.17 1579.64,6098.17C1597.26,6098.17 1611.55,6084.28 1611.55,6067.17C1611.55,6022.94 1579.64,5882.62 1579.64,5882.62Z" style="fill:rgb(255,232,98);"/>
                    </g>
                    <g>
                        <g>
                            <g transform="matrix(-0.547825,0.146789,-0.16157,-0.602989,3676.86,8581)">
                                <path d="M1579.64,5882.62C1579.64,5882.62 1547.73,6024.47 1547.73,6069.18C1547.73,6085.18 1562.03,6098.17 1579.64,6098.17C1597.26,6098.17 1608.29,6081.41 1604.33,6065.82C1592.79,6020.43 1579.64,5882.62 1579.64,5882.62Z" style="fill:rgb(255,232,98);"/>
                            </g>
                            <g transform="matrix(-0.464582,0.325304,-0.358061,-0.511364,4621.92,7788.98)">
                                <path d="M1579.64,5882.62C1574.46,5881.06 1518.75,6015.76 1547.73,6069.18C1555.36,6083.24 1567.8,6104.07 1585.41,6104.07C1603.02,6104.07 1618.04,6083.81 1611.55,6069.18C1590.32,6021.25 1572.48,5881.54 1579.64,5882.62Z" style="fill:rgb(255,232,98);"/>
                            </g>
                            <g transform="matrix(-0.314746,0.471798,-0.519307,-0.34644,5315.97,6686.68)">
                                <path d="M1579.64,5882.62C1579.64,5882.62 1536.04,6019.67 1536.04,6064.38C1536.04,6080.39 1554.89,6100.91 1572.5,6100.91C1590.11,6100.91 1599.86,6080.39 1599.86,6064.38C1599.86,6019.67 1579.64,5882.62 1579.64,5882.62Z" style="fill:rgb(255,232,98);"/>
                            </g>
                            <g transform="matrix(-0.146789,0.547825,-0.602989,-0.16157,5481.1,5526.93)">
                                <path d="M1579.64,5882.62C1548.95,5983.46 1548.23,6023.68 1548.23,6068.39C1548.23,6084.39 1566.31,6114.08 1593.59,6107.44C1610.7,6103.27 1624.61,6089.89 1611.55,6069.18C1581.64,6021.74 1582.48,5873.31 1579.64,5882.62Z" style="fill:rgb(255,232,98);"/>
                            </g>
                        </g>
                        <g transform="matrix(-1,-1.22465e-16,-1.22465e-16,1,3843.34,6.06947)">
                            <g transform="matrix(-0.547825,0.146789,-0.16157,-0.602989,3676.86,8581)">
                                <path d="M1579.64,5882.62C1579.64,5882.62 1547.73,6024.47 1547.73,6069.18C1547.73,6085.18 1562.03,6098.17 1579.64,6098.17C1597.26,6098.17 1608.29,6081.41 1604.33,6065.82C1592.79,6020.43 1579.64,5882.62 1579.64,5882.62Z" style="fill:rgb(255,232,98);"/>
                            </g>
                            <g transform="matrix(-0.464582,0.325304,-0.358061,-0.511364,4621.92,7788.98)">
                                <path d="M1579.64,5882.62C1574.46,5881.06 1518.75,6015.76 1547.73,6069.18C1555.36,6083.24 1567.8,6104.07 1585.41,6104.07C1603.02,6104.07 1618.04,6083.81 1611.55,6069.18C1590.32,6021.25 1572.48,5881.54 1579.64,5882.62Z" style="fill:rgb(255,232,98);"/>
                            </g>
                            <g transform="matrix(-0.314746,0.471798,-0.519307,-0.34644,5315.97,6686.68)">
                                <path d="M1579.64,5882.62C1579.64,5882.62 1536.04,6019.67 1536.04,6064.38C1536.04,6080.39 1554.89,6100.91 1572.5,6100.91C1590.11,6100.91 1599.86,6080.39 1599.86,6064.38C1599.86,6019.67 1579.64,5882.62 1579.64,5882.62Z" style="fill:rgb(255,232,98);"/>
                            </g>
                            <g transform="matrix(-0.146789,0.547825,-0.602989,-0.16157,5481.1,5526.93)">
                                <path d="M1579.64,5882.62C1548.95,5983.46 1548.23,6023.68 1548.23,6068.39C1548.23,6084.39 1566.31,6114.08 1593.59,6107.44C1610.7,6103.27 1624.61,6089.89 1611.55,6069.18C1581.64,6021.74 1582.48,5873.31 1579.64,5882.62Z" style="fill:rgb(255,232,98);"/>
                            </g>
                        </g>
                    </g>
                    <g transform="matrix(1,1.22465e-16,1.22465e-16,-1,-0.00951429,10947.5)">
                        <g>
                            <g transform="matrix(-0.547825,0.146789,-0.16157,-0.602989,3676.86,8581)">
                                <path d="M1579.64,5882.62C1579.64,5882.62 1547.73,6024.47 1547.73,6069.18C1547.73,6085.18 1562.03,6098.17 1579.64,6098.17C1597.26,6098.17 1608.29,6081.41 1604.33,6065.82C1592.79,6020.43 1579.64,5882.62 1579.64,5882.62Z" style="fill:rgb(255,232,98);"/>
                            </g>
                            <g transform="matrix(-0.464582,0.325304,-0.358061,-0.511364,4621.92,7788.98)">
                                <path d="M1579.64,5882.62C1574.46,5881.06 1518.75,6015.76 1547.73,6069.18C1555.36,6083.24 1567.8,6104.07 1585.41,6104.07C1603.02,6104.07 1618.04,6083.81 1611.55,6069.18C1590.32,6021.25 1572.48,5881.54 1579.64,5882.62Z" style="fill:rgb(255,232,98);"/>
                            </g>
                            <g transform="matrix(-0.314746,0.471798,-0.519307,-0.34644,5315.97,6686.68)">
                                <path d="M1579.64,5882.62C1579.64,5882.62 1536.04,6019.67 1536.04,6064.38C1536.04,6080.39 1554.89,6100.91 1572.5,6100.91C1590.11,6100.91 1599.86,6080.39 1599.86,6064.38C1599.86,6019.67 1579.64,5882.62 1579.64,5882.62Z" style="fill:rgb(255,232,98);"/>
                            </g>
                            <g transform="matrix(-0.146789,0.547825,-0.602989,-0.16157,5481.1,5526.93)">
                                <path d="M1579.64,5882.62C1548.95,5983.46 1548.23,6023.68 1548.23,6068.39C1548.23,6084.39 1566.31,6114.08 1593.59,6107.44C1610.7,6103.27 1624.61,6089.89 1611.55,6069.18C1581.64,6021.74 1582.48,5873.31 1579.64,5882.62Z" style="fill:rgb(255,232,98);"/>
                            </g>
                        </g>
                        <g transform="matrix(-1,-1.22465e-16,-1.22465e-16,1,3843.34,6.06947)">
                            <g transform="matrix(-0.547825,0.146789,-0.16157,-0.602989,3676.86,8581)">
                                <path d="M1579.64,5882.62C1579.64,5882.62 1547.73,6024.47 1547.73,6069.18C1547.73,6085.18 1562.03,6098.17 1579.64,6098.17C1597.26,6098.17 1608.29,6081.41 1604.33,6065.82C1592.79,6020.43 1579.64,5882.62 1579.64,5882.62Z" style="fill:rgb(255,232,98);"/>
                            </g>
                            <g transform="matrix(-0.464582,0.325304,-0.358061,-0.511364,4621.92,7788.98)">
                                <path d="M1579.64,5882.62C1574.46,5881.06 1518.75,6015.76 1547.73,6069.18C1555.36,6083.24 1567.8,6104.07 1585.41,6104.07C1603.02,6104.07 1618.04,6083.81 1611.55,6069.18C1590.32,6021.25 1572.48,5881.54 1579.64,5882.62Z" style="fill:rgb(255,232,98);"/>
                            </g>
                            <g transform="matrix(-0.314746,0.471798,-0.519307,-0.34644,5315.97,6686.68)">
                                <path d="M1579.64,5882.62C1579.64,5882.62 1536.04,6019.67 1536.04,6064.38C1536.04,6080.39 1554.89,6100.91 1572.5,6100.91C1590.11,6100.91 1599.86,6080.39 1599.86,6064.38C1599.86,6019.67 1579.64,5882.62 1579.64,5882.62Z" style="fill:rgb(255,232,98);"/>
                            </g>
                            <g transform="matrix(-0.146789,0.547825,-0.602989,-0.16157,5481.1,5526.93)">
                                <path d="M1579.64,5882.62C1548.95,5983.46 1548.23,6023.68 1548.23,6068.39C1548.23,6084.39 1566.31,6114.08 1593.59,6107.44C1610.7,6103.27 1624.61,6089.89 1611.55,6069.18C1581.64,6021.74 1582.48,5873.31 1579.64,5882.62Z" style="fill:rgb(255,232,98);"/>
                            </g>
                        </g>
                    </g>
                    <g transform="matrix(0.401035,-0.401035,-0.441419,-0.441419,3846.25,8666.31)">
                        <path d="M1579.64,5882.62C1579.64,5882.62 1572.98,5953.41 1547.73,6069.18C1543.69,6087.72 1562.03,6098.17 1579.64,6098.17C1597.26,6098.17 1611.55,6085.18 1611.55,6069.18L1579.64,5882.62Z" style="fill:rgb(255,232,98);"/>
                    </g>
                    <g transform="matrix(0.401035,0.401035,-0.441419,0.441419,3846.22,2283.4)">
                        <path d="M1579.64,5882.62C1579.64,5882.62 1572.98,5953.41 1547.73,6069.18C1543.69,6087.72 1562.03,6098.17 1579.64,6098.17C1597.26,6098.17 1611.55,6085.18 1611.55,6069.18L1579.64,5882.62Z" style="fill:rgb(255,232,98);"/>
                    </g>
                    <g transform="matrix(-0.401035,-0.401035,0.441419,-0.441419,-2.8621,8666.24)">
                        <path d="M1579.64,5882.62C1579.64,5882.62 1572.98,5953.41 1547.73,6069.18C1543.69,6087.72 1562.03,6098.17 1579.64,6098.17C1597.26,6098.17 1611.55,6085.18 1611.55,6069.18L1579.64,5882.62Z" style="fill:rgb(255,232,98);"/>
                    </g>
                    <g transform="matrix(-0.401035,0.401035,0.441419,0.441419,-2.8971,2283.47)">
                        <path d="M1579.64,5882.62C1579.64,5882.62 1572.98,5953.41 1547.73,6069.18C1543.69,6087.72 1562.03,6098.17 1579.64,6098.17C1597.26,6098.17 1611.55,6085.18 1611.55,6069.18L1579.64,5882.62Z" style="fill:rgb(255,232,98);"/>
                    </g>
                    <g transform="matrix(-1.04184e-16,0.56715,-0.62426,-1.14675e-16,5539.05,4578.84)">
                        <path d="M1579.64,5882.62C1571.06,5882.27 1522.66,6029.52 1550,6075.36C1558.2,6089.1 1569.4,6098.17 1587.01,6098.17C1604.62,6098.17 1616.54,6084.53 1611.55,6069.18C1587.01,5993.57 1579.64,5882.62 1579.64,5882.62Z" style="fill:rgb(255,232,98);"/>
                    </g>
                    <g transform="matrix(1.04184e-16,0.56715,0.62426,-1.14675e-16,-1695.49,4580.22)">
                        <path d="M1579.64,5882.62C1571.06,5882.27 1522.66,6029.52 1550,6075.36C1558.2,6089.1 1569.4,6098.17 1587.01,6098.17C1604.62,6098.17 1616.54,6084.53 1611.55,6069.18C1587.01,5993.57 1579.64,5882.62 1579.64,5882.62Z" style="fill:rgb(255,232,98);"/>
                    </g>
                    <g transform="matrix(0.56715,6.94558e-17,-7.64498e-17,0.62426,1025.77,1880.56)">
                        <path d="M1579.64,5882.62C1579.64,5882.62 1547.73,6022.94 1547.73,6067.17C1547.73,6084.28 1562.03,6098.17 1579.64,6098.17C1597.26,6098.17 1611.55,6084.28 1611.55,6067.17C1611.55,6022.94 1579.64,5882.62 1579.64,5882.62Z" style="fill:rgb(255,232,98);"/>
                    </g>
                    <g transform="matrix(0.401066,2.45582e-17,3.19734e-18,0.401066,1144.46,3270.4)">
                        <circle cx="1937.84" cy="5496.18" r="47.301" style="fill:rgb(255,232,98);"/>
                    </g>
                </g>
            </g>
        </g>
    </g>
</svg>
